<mxfile host="f9db0ea3-d73d-4619-a765-f1524ebc1ae2" modified="2020-08-09T23:01:31.111Z" agent="5.0 (Windows NT 10.0; Win64; x64) AppleWebKit/537.36 (KHTML, like Gecko) Code/1.47.3 Chrome/78.0.3904.130 Electron/7.3.2 Safari/537.36" etag="g-yPLEisuF1eXHDJgt1-" version="13.1.3" pages="6">
    <diagram id="6hGFLwfOUW9BJ-s0fimq" name="no_child">
        <mxGraphModel dx="1770" dy="1010" grid="1" gridSize="10" guides="1" tooltips="1" connect="1" arrows="1" fold="1" page="1" pageScale="1" pageWidth="827" pageHeight="1169" math="0" shadow="0">
            <root>
                <mxCell id="0"/>
                <mxCell id="1" parent="0"/>
                <mxCell id="VUpWZQGEfNumlUybI0wg-24" value="" style="rounded=0;whiteSpace=wrap;html=1;fillColor=#FFFFFF;strokeColor=none;" parent="1" vertex="1">
                    <mxGeometry x="80" y="100" width="480" height="460" as="geometry"/>
                </mxCell>
                <mxCell id="2" value="&lt;font color=&quot;#000000&quot;&gt;parent&lt;/font&gt;" style="ellipse;whiteSpace=wrap;html=1;aspect=fixed;strokeColor=#006EAF;strokeWidth=2;fillColor=#1ba1e2;fontColor=#ffffff;" parent="1" vertex="1">
                    <mxGeometry x="120" y="160" width="40" height="40" as="geometry"/>
                </mxCell>
                <mxCell id="3" value="&lt;font color=&quot;#000000&quot;&gt;deleting&lt;/font&gt;" style="ellipse;whiteSpace=wrap;html=1;aspect=fixed;strokeColor=#FFB366;strokeWidth=2;fillColor=#1ba1e2;fontColor=#ffffff;" parent="1" vertex="1">
                    <mxGeometry x="180" y="220" width="40" height="40" as="geometry"/>
                </mxCell>
                <mxCell id="4" value="" style="endArrow=none;html=1;strokeColor=#000000;strokeWidth=2;exitX=1;exitY=1;exitDx=0;exitDy=0;entryX=0;entryY=0;entryDx=0;entryDy=0;" parent="1" source="2" target="3" edge="1">
                    <mxGeometry width="50" height="50" relative="1" as="geometry">
                        <mxPoint x="205.85786437626894" y="214.14213562373106" as="sourcePoint"/>
                        <mxPoint x="174.14213562373106" y="245.85786437626894" as="targetPoint"/>
                    </mxGeometry>
                </mxCell>
                <mxCell id="6" value="" style="endArrow=none;html=1;strokeColor=#000000;strokeWidth=2;entryX=1;entryY=1;entryDx=0;entryDy=0;exitX=0;exitY=0;exitDx=0;exitDy=0;" parent="1" source="7" target="3" edge="1">
                    <mxGeometry width="50" height="50" relative="1" as="geometry">
                        <mxPoint x="160" y="280" as="sourcePoint"/>
                        <mxPoint x="224.14213562373106" y="235.85786437626894" as="targetPoint"/>
                    </mxGeometry>
                </mxCell>
                <mxCell id="7" value="&lt;font color=&quot;#000000&quot;&gt;None&lt;/font&gt;" style="ellipse;whiteSpace=wrap;html=1;aspect=fixed;strokeColor=#006EAF;strokeWidth=2;fillColor=none;fontColor=#ffffff;dashed=1;" parent="1" vertex="1">
                    <mxGeometry x="240" y="280" width="40" height="40" as="geometry"/>
                </mxCell>
                <mxCell id="8" value="" style="html=1;shadow=0;dashed=0;align=center;verticalAlign=middle;shape=mxgraph.arrows2.arrow;dy=0.45;dx=30.5;notch=0;strokeColor=none;fillColor=#FF9933;" parent="1" vertex="1">
                    <mxGeometry x="300" y="220" width="50" height="40" as="geometry"/>
                </mxCell>
                <mxCell id="9" value="&lt;font color=&quot;#000000&quot;&gt;parent&lt;/font&gt;" style="ellipse;whiteSpace=wrap;html=1;aspect=fixed;strokeColor=#006EAF;strokeWidth=2;fillColor=#1ba1e2;fontColor=#ffffff;" parent="1" vertex="1">
                    <mxGeometry x="374" y="160" width="40" height="40" as="geometry"/>
                </mxCell>
                <mxCell id="13" value="" style="endArrow=none;html=1;strokeColor=#000000;strokeWidth=2;entryX=1;entryY=1;entryDx=0;entryDy=0;exitX=0;exitY=0;exitDx=0;exitDy=0;" parent="1" source="14" target="9" edge="1">
                    <mxGeometry width="50" height="50" relative="1" as="geometry">
                        <mxPoint x="400" y="290" as="sourcePoint"/>
                        <mxPoint x="425.85786437626894" y="264.14213562373106" as="targetPoint"/>
                    </mxGeometry>
                </mxCell>
                <mxCell id="14" value="&lt;font color=&quot;#000000&quot;&gt;None&lt;/font&gt;" style="ellipse;whiteSpace=wrap;html=1;aspect=fixed;strokeColor=#006EAF;strokeWidth=2;fillColor=none;fontColor=#ffffff;dashed=1;" parent="1" vertex="1">
                    <mxGeometry x="440" y="220" width="40" height="40" as="geometry"/>
                </mxCell>
                <mxCell id="15" value="&lt;font color=&quot;#000000&quot;&gt;parent&lt;/font&gt;" style="ellipse;whiteSpace=wrap;html=1;aspect=fixed;strokeColor=#006EAF;strokeWidth=2;fillColor=#1ba1e2;fontColor=#ffffff;" parent="1" vertex="1">
                    <mxGeometry x="245" y="380" width="40" height="40" as="geometry"/>
                </mxCell>
                <mxCell id="16" value="&lt;font color=&quot;#000000&quot;&gt;deleting&lt;/font&gt;" style="ellipse;whiteSpace=wrap;html=1;aspect=fixed;strokeColor=#FFB366;strokeWidth=2;fillColor=#1ba1e2;fontColor=#ffffff;" parent="1" vertex="1">
                    <mxGeometry x="185" y="440" width="40" height="40" as="geometry"/>
                </mxCell>
                <mxCell id="17" value="" style="endArrow=none;html=1;strokeColor=#000000;strokeWidth=2;exitX=0;exitY=1;exitDx=0;exitDy=0;entryX=1;entryY=0;entryDx=0;entryDy=0;" parent="1" source="15" target="16" edge="1">
                    <mxGeometry width="50" height="50" relative="1" as="geometry">
                        <mxPoint x="150.85786437626894" y="434.14213562373106" as="sourcePoint"/>
                        <mxPoint x="119.14213562373106" y="465.85786437626894" as="targetPoint"/>
                    </mxGeometry>
                </mxCell>
                <mxCell id="19" value="" style="endArrow=none;html=1;strokeColor=#000000;strokeWidth=2;entryX=1;entryY=1;entryDx=0;entryDy=0;exitX=0;exitY=0;exitDx=0;exitDy=0;" parent="1" source="20" target="16" edge="1">
                    <mxGeometry width="50" height="50" relative="1" as="geometry">
                        <mxPoint x="105" y="500" as="sourcePoint"/>
                        <mxPoint x="169.14213562373106" y="455.85786437626894" as="targetPoint"/>
                    </mxGeometry>
                </mxCell>
                <mxCell id="20" value="&lt;font color=&quot;#000000&quot;&gt;None&lt;/font&gt;" style="ellipse;whiteSpace=wrap;html=1;aspect=fixed;strokeColor=#006EAF;strokeWidth=2;fillColor=none;fontColor=#ffffff;dashed=1;" parent="1" vertex="1">
                    <mxGeometry x="245" y="500" width="40" height="40" as="geometry"/>
                </mxCell>
                <mxCell id="22" value="&lt;font color=&quot;#000000&quot;&gt;predecessor&lt;/font&gt;" style="ellipse;whiteSpace=wrap;html=1;aspect=fixed;strokeColor=#006EAF;strokeWidth=2;fillColor=#1ba1e2;fontColor=#ffffff;" parent="1" vertex="1">
                    <mxGeometry x="105" y="400" width="40" height="40" as="geometry"/>
                </mxCell>
                <mxCell id="23" value="" style="html=1;shadow=0;dashed=0;align=center;verticalAlign=middle;shape=mxgraph.arrows2.arrow;dy=0.45;dx=30.5;notch=0;strokeColor=none;fillColor=#FF9933;" parent="1" vertex="1">
                    <mxGeometry x="305" y="440" width="50" height="40" as="geometry"/>
                </mxCell>
                <mxCell id="rWuuGIBVy-WIGxEvd5Dq-31" value="" style="endArrow=classic;html=1;curved=1;strokeColor=#FFB366;strokeWidth=2;dashed=1;exitX=0;exitY=1;exitDx=0;exitDy=0;entryX=0.5;entryY=1;entryDx=0;entryDy=0;edgeStyle=orthogonalEdgeStyle;" parent="1" source="3" target="2" edge="1">
                    <mxGeometry width="50" height="50" relative="1" as="geometry">
                        <mxPoint x="154.14213562373106" y="194.14213562373106" as="sourcePoint"/>
                        <mxPoint x="200" y="140" as="targetPoint"/>
                    </mxGeometry>
                </mxCell>
                <mxCell id="rWuuGIBVy-WIGxEvd5Dq-32" value="" style="endArrow=classic;html=1;curved=1;strokeColor=#FFB366;strokeWidth=2;dashed=1;exitX=0;exitY=1;exitDx=0;exitDy=0;entryX=0.5;entryY=1;entryDx=0;entryDy=0;edgeStyle=orthogonalEdgeStyle;" parent="1" source="16" target="22" edge="1">
                    <mxGeometry width="50" height="50" relative="1" as="geometry">
                        <mxPoint x="200.85786437626894" y="204.14213562373106" as="sourcePoint"/>
                        <mxPoint x="155" y="150" as="targetPoint"/>
                        <Array as="points">
                            <mxPoint x="191" y="500"/>
                            <mxPoint x="125" y="500"/>
                        </Array>
                    </mxGeometry>
                </mxCell>
                <mxCell id="rWuuGIBVy-WIGxEvd5Dq-33" value="&lt;font color=&quot;#000000&quot;&gt;parent&lt;/font&gt;" style="ellipse;whiteSpace=wrap;html=1;aspect=fixed;strokeColor=#006EAF;strokeWidth=2;fillColor=#1ba1e2;fontColor=#ffffff;" parent="1" vertex="1">
                    <mxGeometry x="505" y="380" width="40" height="40" as="geometry"/>
                </mxCell>
                <mxCell id="rWuuGIBVy-WIGxEvd5Dq-38" value="&lt;font color=&quot;#000000&quot;&gt;predecessor&lt;/font&gt;" style="ellipse;whiteSpace=wrap;html=1;aspect=fixed;strokeColor=#006EAF;strokeWidth=2;fillColor=#1ba1e2;fontColor=#ffffff;" parent="1" vertex="1">
                    <mxGeometry x="365" y="400" width="40" height="40" as="geometry"/>
                </mxCell>
                <mxCell id="rWuuGIBVy-WIGxEvd5Dq-39" value="" style="endArrow=classic;html=1;curved=1;strokeColor=#FFB366;strokeWidth=2;dashed=1;exitX=0;exitY=1;exitDx=0;exitDy=0;entryX=0.5;entryY=1;entryDx=0;entryDy=0;edgeStyle=orthogonalEdgeStyle;" parent="1" source="rWuuGIBVy-WIGxEvd5Dq-33" target="rWuuGIBVy-WIGxEvd5Dq-38" edge="1">
                    <mxGeometry width="50" height="50" relative="1" as="geometry">
                        <mxPoint x="450.85786437626894" y="474.14213562373106" as="sourcePoint"/>
                        <mxPoint x="415" y="150" as="targetPoint"/>
                        <Array as="points">
                            <mxPoint x="511" y="500"/>
                            <mxPoint x="385" y="500"/>
                        </Array>
                    </mxGeometry>
                </mxCell>
                <mxCell id="nDk5uHplfqXiQ4y_Hgnx-23" value="" style="endArrow=none;html=1;strokeColor=#000000;strokeWidth=2;entryX=1;entryY=0;entryDx=0;entryDy=0;dashed=1;" parent="1" target="22" edge="1">
                    <mxGeometry width="50" height="50" relative="1" as="geometry">
                        <mxPoint x="165" y="380" as="sourcePoint"/>
                        <mxPoint x="229.14213562373106" y="455.85786437626894" as="targetPoint"/>
                    </mxGeometry>
                </mxCell>
                <mxCell id="nDk5uHplfqXiQ4y_Hgnx-24" value="" style="endArrow=none;html=1;strokeColor=#000000;strokeWidth=2;exitX=0;exitY=0;exitDx=0;exitDy=0;dashed=1;" parent="1" source="15" edge="1">
                    <mxGeometry width="50" height="50" relative="1" as="geometry">
                        <mxPoint x="175" y="390" as="sourcePoint"/>
                        <mxPoint x="225" y="360" as="targetPoint"/>
                    </mxGeometry>
                </mxCell>
                <mxCell id="nDk5uHplfqXiQ4y_Hgnx-25" value="" style="endArrow=none;html=1;strokeColor=#000000;strokeWidth=2;entryX=1;entryY=0;entryDx=0;entryDy=0;dashed=1;" parent="1" target="rWuuGIBVy-WIGxEvd5Dq-38" edge="1">
                    <mxGeometry width="50" height="50" relative="1" as="geometry">
                        <mxPoint x="425" y="380" as="sourcePoint"/>
                        <mxPoint x="159.14213562373106" y="425.85786437626894" as="targetPoint"/>
                    </mxGeometry>
                </mxCell>
                <mxCell id="nDk5uHplfqXiQ4y_Hgnx-26" value="" style="endArrow=none;html=1;strokeColor=#000000;strokeWidth=2;exitX=0;exitY=0;exitDx=0;exitDy=0;dashed=1;" parent="1" source="rWuuGIBVy-WIGxEvd5Dq-33" edge="1">
                    <mxGeometry width="50" height="50" relative="1" as="geometry">
                        <mxPoint x="195" y="410" as="sourcePoint"/>
                        <mxPoint x="485" y="360" as="targetPoint"/>
                    </mxGeometry>
                </mxCell>
                <mxCell id="VUpWZQGEfNumlUybI0wg-23" value="" style="shape=link;html=1;dashed=1;strokeColor=#000000;" parent="1" edge="1">
                    <mxGeometry width="50" height="50" relative="1" as="geometry">
                        <mxPoint x="540" y="340" as="sourcePoint"/>
                        <mxPoint x="100" y="340" as="targetPoint"/>
                    </mxGeometry>
                </mxCell>
                <mxCell id="24" value="" style="endArrow=classic;html=1;dashed=1;strokeColor=#FFB366;strokeWidth=2;" edge="1" parent="1">
                    <mxGeometry width="50" height="50" relative="1" as="geometry">
                        <mxPoint x="405" y="129.5" as="sourcePoint"/>
                        <mxPoint x="455" y="129.5" as="targetPoint"/>
                    </mxGeometry>
                </mxCell>
                <mxCell id="25" value="&lt;font color=&quot;#000000&quot; style=&quot;font-size: 14px&quot;&gt;&lt;b&gt;left thread&lt;/b&gt;&lt;/font&gt;" style="text;html=1;strokeColor=none;fillColor=none;align=center;verticalAlign=middle;whiteSpace=wrap;rounded=0;" vertex="1" parent="1">
                    <mxGeometry x="455" y="120" width="90" height="20" as="geometry"/>
                </mxCell>
            </root>
        </mxGraphModel>
    </diagram>
    <diagram name="one_right_child" id="PGhEoFaMu8bNXuBWCQsl">
        <mxGraphModel dx="1770" dy="2179" grid="1" gridSize="10" guides="1" tooltips="1" connect="1" arrows="1" fold="1" page="1" pageScale="1" pageWidth="827" pageHeight="1169" math="0" shadow="0">
            <root>
                <mxCell id="CeSif-LkQ0VTNuqgXHJz-0"/>
                <mxCell id="CeSif-LkQ0VTNuqgXHJz-1" parent="CeSif-LkQ0VTNuqgXHJz-0"/>
                <mxCell id="0psC9PywafLdnC9q6suG-3" value="" style="rounded=0;whiteSpace=wrap;html=1;fillColor=#FFFFFF;strokeColor=none;" parent="CeSif-LkQ0VTNuqgXHJz-1" vertex="1">
                    <mxGeometry x="60" y="-20" width="520" height="1120" as="geometry"/>
                </mxCell>
                <mxCell id="CeSif-LkQ0VTNuqgXHJz-2" value="&lt;font color=&quot;#000000&quot;&gt;parent&lt;/font&gt;" style="ellipse;whiteSpace=wrap;html=1;aspect=fixed;strokeColor=#006EAF;strokeWidth=2;fillColor=#1ba1e2;fontColor=#ffffff;" parent="CeSif-LkQ0VTNuqgXHJz-1" vertex="1">
                    <mxGeometry x="120" y="40" width="40" height="40" as="geometry"/>
                </mxCell>
                <mxCell id="CeSif-LkQ0VTNuqgXHJz-3" value="&lt;font color=&quot;#000000&quot;&gt;deleting&lt;/font&gt;" style="ellipse;whiteSpace=wrap;html=1;aspect=fixed;strokeColor=#FFB366;strokeWidth=2;fillColor=#1ba1e2;fontColor=#ffffff;" parent="CeSif-LkQ0VTNuqgXHJz-1" vertex="1">
                    <mxGeometry x="180" y="100" width="40" height="40" as="geometry"/>
                </mxCell>
                <mxCell id="CeSif-LkQ0VTNuqgXHJz-4" value="" style="endArrow=none;html=1;strokeColor=#000000;strokeWidth=2;exitX=1;exitY=1;exitDx=0;exitDy=0;entryX=0;entryY=0;entryDx=0;entryDy=0;" parent="CeSif-LkQ0VTNuqgXHJz-1" source="CeSif-LkQ0VTNuqgXHJz-2" target="CeSif-LkQ0VTNuqgXHJz-3" edge="1">
                    <mxGeometry width="50" height="50" relative="1" as="geometry">
                        <mxPoint x="205.85786437626894" y="94.14213562373106" as="sourcePoint"/>
                        <mxPoint x="174.14213562373106" y="125.85786437626894" as="targetPoint"/>
                    </mxGeometry>
                </mxCell>
                <mxCell id="CeSif-LkQ0VTNuqgXHJz-6" value="" style="endArrow=none;html=1;strokeColor=#000000;strokeWidth=2;entryX=1;entryY=1;entryDx=0;entryDy=0;exitX=0;exitY=1;exitDx=0;exitDy=0;" parent="CeSif-LkQ0VTNuqgXHJz-1" source="CeSif-LkQ0VTNuqgXHJz-23" target="CeSif-LkQ0VTNuqgXHJz-3" edge="1">
                    <mxGeometry width="50" height="50" relative="1" as="geometry">
                        <mxPoint x="154.14213562373106" y="165.85786437626894" as="sourcePoint"/>
                        <mxPoint x="224.14213562373106" y="115.85786437626894" as="targetPoint"/>
                    </mxGeometry>
                </mxCell>
                <mxCell id="CeSif-LkQ0VTNuqgXHJz-8" value="" style="html=1;shadow=0;dashed=0;align=center;verticalAlign=middle;shape=mxgraph.arrows2.arrow;dy=0.45;dx=30.5;notch=0;strokeColor=none;fillColor=#FF9933;" parent="CeSif-LkQ0VTNuqgXHJz-1" vertex="1">
                    <mxGeometry x="300" y="100" width="50" height="40" as="geometry"/>
                </mxCell>
                <mxCell id="CeSif-LkQ0VTNuqgXHJz-12" value="&lt;font color=&quot;#000000&quot;&gt;parent&lt;/font&gt;" style="ellipse;whiteSpace=wrap;html=1;aspect=fixed;strokeColor=#006EAF;strokeWidth=2;fillColor=#1ba1e2;fontColor=#ffffff;" parent="CeSif-LkQ0VTNuqgXHJz-1" vertex="1">
                    <mxGeometry x="120" y="520" width="40" height="40" as="geometry"/>
                </mxCell>
                <mxCell id="CeSif-LkQ0VTNuqgXHJz-13" value="&lt;font color=&quot;#000000&quot;&gt;deleting&lt;/font&gt;" style="ellipse;whiteSpace=wrap;html=1;aspect=fixed;strokeColor=#FFB366;strokeWidth=2;fillColor=#1ba1e2;fontColor=#ffffff;" parent="CeSif-LkQ0VTNuqgXHJz-1" vertex="1">
                    <mxGeometry x="180" y="580" width="40" height="40" as="geometry"/>
                </mxCell>
                <mxCell id="CeSif-LkQ0VTNuqgXHJz-14" value="" style="endArrow=none;html=1;strokeColor=#000000;strokeWidth=2;exitX=1;exitY=1;exitDx=0;exitDy=0;entryX=0;entryY=0;entryDx=0;entryDy=0;" parent="CeSif-LkQ0VTNuqgXHJz-1" source="CeSif-LkQ0VTNuqgXHJz-12" target="CeSif-LkQ0VTNuqgXHJz-13" edge="1">
                    <mxGeometry width="50" height="50" relative="1" as="geometry">
                        <mxPoint x="145.85786437626894" y="574.1421356237311" as="sourcePoint"/>
                        <mxPoint x="126" y="600" as="targetPoint"/>
                    </mxGeometry>
                </mxCell>
                <mxCell id="CeSif-LkQ0VTNuqgXHJz-15" value="" style="endArrow=none;html=1;strokeColor=#000000;strokeWidth=2;entryX=1;entryY=1;entryDx=0;entryDy=0;exitX=0;exitY=0;exitDx=0;exitDy=0;" parent="CeSif-LkQ0VTNuqgXHJz-1" source="NnDIAgsHRutLFN9ROoSn-0" target="CeSif-LkQ0VTNuqgXHJz-13" edge="1">
                    <mxGeometry width="50" height="50" relative="1" as="geometry">
                        <mxPoint x="214.14213562373106" y="645.8578643762689" as="sourcePoint"/>
                        <mxPoint x="164.14213562373106" y="595.8578643762689" as="targetPoint"/>
                    </mxGeometry>
                </mxCell>
                <mxCell id="CeSif-LkQ0VTNuqgXHJz-19" value="" style="html=1;shadow=0;dashed=0;align=center;verticalAlign=middle;shape=mxgraph.arrows2.arrow;dy=0.45;dx=30.5;notch=0;strokeColor=none;fillColor=#FF9933;" parent="CeSif-LkQ0VTNuqgXHJz-1" vertex="1">
                    <mxGeometry x="300" y="580" width="50" height="40" as="geometry"/>
                </mxCell>
                <mxCell id="CeSif-LkQ0VTNuqgXHJz-23" value="&lt;font color=&quot;#000000&quot;&gt;replacing&lt;/font&gt;" style="ellipse;whiteSpace=wrap;html=1;aspect=fixed;strokeColor=#006EAF;strokeWidth=2;fillColor=#1ba1e2;fontColor=#ffffff;direction=south;" parent="CeSif-LkQ0VTNuqgXHJz-1" vertex="1">
                    <mxGeometry x="240" y="160" width="40" height="40" as="geometry"/>
                </mxCell>
                <mxCell id="NnDIAgsHRutLFN9ROoSn-0" value="&lt;font color=&quot;#000000&quot;&gt;replacing&lt;/font&gt;" style="ellipse;whiteSpace=wrap;html=1;aspect=fixed;strokeColor=#006EAF;strokeWidth=2;fillColor=#1ba1e2;fontColor=#ffffff;" parent="CeSif-LkQ0VTNuqgXHJz-1" vertex="1">
                    <mxGeometry x="240" y="640" width="40" height="40" as="geometry"/>
                </mxCell>
                <mxCell id="NnDIAgsHRutLFN9ROoSn-1" value="" style="ellipse;whiteSpace=wrap;html=1;aspect=fixed;strokeColor=#006EAF;strokeWidth=2;fillColor=#1ba1e2;fontColor=#ffffff;" parent="CeSif-LkQ0VTNuqgXHJz-1" vertex="1">
                    <mxGeometry x="280" y="700" width="40" height="40" as="geometry"/>
                </mxCell>
                <mxCell id="NnDIAgsHRutLFN9ROoSn-2" value="" style="ellipse;whiteSpace=wrap;html=1;aspect=fixed;strokeColor=#006EAF;strokeWidth=2;fillColor=#1ba1e2;fontColor=#ffffff;" parent="CeSif-LkQ0VTNuqgXHJz-1" vertex="1">
                    <mxGeometry x="200" y="700" width="40" height="40" as="geometry"/>
                </mxCell>
                <mxCell id="NnDIAgsHRutLFN9ROoSn-3" value="" style="endArrow=none;html=1;strokeColor=#000000;strokeWidth=2;entryX=0;entryY=1;entryDx=0;entryDy=0;exitX=1;exitY=0;exitDx=0;exitDy=0;" parent="CeSif-LkQ0VTNuqgXHJz-1" source="NnDIAgsHRutLFN9ROoSn-2" target="NnDIAgsHRutLFN9ROoSn-0" edge="1">
                    <mxGeometry width="50" height="50" relative="1" as="geometry">
                        <mxPoint x="284.14213562373106" y="655.8578643762689" as="sourcePoint"/>
                        <mxPoint x="315.85786437626894" y="624.1421356237311" as="targetPoint"/>
                    </mxGeometry>
                </mxCell>
                <mxCell id="NnDIAgsHRutLFN9ROoSn-4" value="" style="endArrow=none;html=1;strokeColor=#000000;strokeWidth=2;entryX=0;entryY=0;entryDx=0;entryDy=0;exitX=1;exitY=1;exitDx=0;exitDy=0;" parent="CeSif-LkQ0VTNuqgXHJz-1" source="NnDIAgsHRutLFN9ROoSn-0" target="NnDIAgsHRutLFN9ROoSn-1" edge="1">
                    <mxGeometry width="50" height="50" relative="1" as="geometry">
                        <mxPoint x="294.14213562373106" y="665.8578643762689" as="sourcePoint"/>
                        <mxPoint x="325.85786437626894" y="634.1421356237311" as="targetPoint"/>
                    </mxGeometry>
                </mxCell>
                <mxCell id="NnDIAgsHRutLFN9ROoSn-39" value="&lt;font color=&quot;#000000&quot;&gt;parent&lt;/font&gt;" style="ellipse;whiteSpace=wrap;html=1;aspect=fixed;strokeColor=#006EAF;strokeWidth=2;fillColor=#1ba1e2;fontColor=#ffffff;" parent="CeSif-LkQ0VTNuqgXHJz-1" vertex="1">
                    <mxGeometry x="230" y="280" width="40" height="40" as="geometry"/>
                </mxCell>
                <mxCell id="NnDIAgsHRutLFN9ROoSn-40" value="&lt;font color=&quot;#000000&quot;&gt;deleting&lt;/font&gt;" style="ellipse;whiteSpace=wrap;html=1;aspect=fixed;strokeColor=#FFB366;strokeWidth=2;fillColor=#1ba1e2;fontColor=#ffffff;" parent="CeSif-LkQ0VTNuqgXHJz-1" vertex="1">
                    <mxGeometry x="170" y="340" width="40" height="40" as="geometry"/>
                </mxCell>
                <mxCell id="NnDIAgsHRutLFN9ROoSn-41" value="" style="endArrow=none;html=1;strokeColor=#000000;strokeWidth=2;exitX=0;exitY=1;exitDx=0;exitDy=0;entryX=1;entryY=0;entryDx=0;entryDy=0;" parent="CeSif-LkQ0VTNuqgXHJz-1" source="NnDIAgsHRutLFN9ROoSn-39" target="NnDIAgsHRutLFN9ROoSn-40" edge="1">
                    <mxGeometry width="50" height="50" relative="1" as="geometry">
                        <mxPoint x="135.85786437626894" y="404.14213562373106" as="sourcePoint"/>
                        <mxPoint x="104.14213562373106" y="435.85786437626894" as="targetPoint"/>
                    </mxGeometry>
                </mxCell>
                <mxCell id="NnDIAgsHRutLFN9ROoSn-43" value="" style="endArrow=none;html=1;strokeColor=#000000;strokeWidth=2;entryX=1;entryY=1;entryDx=0;entryDy=0;exitX=0;exitY=1;exitDx=0;exitDy=0;" parent="CeSif-LkQ0VTNuqgXHJz-1" source="NnDIAgsHRutLFN9ROoSn-47" target="NnDIAgsHRutLFN9ROoSn-40" edge="1">
                    <mxGeometry width="50" height="50" relative="1" as="geometry">
                        <mxPoint x="84.14213562373106" y="475.85786437626894" as="sourcePoint"/>
                        <mxPoint x="154.14213562373106" y="425.85786437626894" as="targetPoint"/>
                    </mxGeometry>
                </mxCell>
                <mxCell id="NnDIAgsHRutLFN9ROoSn-44" value="" style="html=1;shadow=0;dashed=0;align=center;verticalAlign=middle;shape=mxgraph.arrows2.arrow;dy=0.45;dx=30.5;notch=0;strokeColor=none;fillColor=#FF9933;" parent="CeSif-LkQ0VTNuqgXHJz-1" vertex="1">
                    <mxGeometry x="310" y="340" width="50" height="40" as="geometry"/>
                </mxCell>
                <mxCell id="NnDIAgsHRutLFN9ROoSn-47" value="&lt;font color=&quot;#000000&quot;&gt;replacing&lt;/font&gt;" style="ellipse;whiteSpace=wrap;html=1;aspect=fixed;strokeColor=#006EAF;strokeWidth=2;fillColor=#1ba1e2;fontColor=#ffffff;direction=south;" parent="CeSif-LkQ0VTNuqgXHJz-1" vertex="1">
                    <mxGeometry x="230" y="400" width="40" height="40" as="geometry"/>
                </mxCell>
                <mxCell id="ZxbC2Xd3HvjLgOjPFKle-0" value="" style="endArrow=classic;html=1;curved=1;strokeColor=#FFB366;strokeWidth=2;dashed=1;entryX=0.5;entryY=1;entryDx=0;entryDy=0;edgeStyle=orthogonalEdgeStyle;exitX=0;exitY=1;exitDx=0;exitDy=0;" parent="CeSif-LkQ0VTNuqgXHJz-1" source="NnDIAgsHRutLFN9ROoSn-40" target="ZxbC2Xd3HvjLgOjPFKle-1" edge="1">
                    <mxGeometry width="50" height="50" relative="1" as="geometry">
                        <mxPoint x="184.14213562373106" y="374.14213562373106" as="sourcePoint"/>
                        <mxPoint x="248.68" y="338.3" as="targetPoint"/>
                        <Array as="points">
                            <mxPoint x="176" y="400"/>
                            <mxPoint x="130" y="400"/>
                        </Array>
                    </mxGeometry>
                </mxCell>
                <mxCell id="ZxbC2Xd3HvjLgOjPFKle-1" value="&lt;font color=&quot;#000000&quot;&gt;predecessor&lt;/font&gt;" style="ellipse;whiteSpace=wrap;html=1;aspect=fixed;strokeColor=#006EAF;strokeWidth=2;fillColor=#1ba1e2;fontColor=#ffffff;" parent="CeSif-LkQ0VTNuqgXHJz-1" vertex="1">
                    <mxGeometry x="110" y="300" width="40" height="40" as="geometry"/>
                </mxCell>
                <mxCell id="ZxbC2Xd3HvjLgOjPFKle-2" value="" style="endArrow=classic;html=1;curved=1;strokeColor=#FFB366;strokeWidth=2;dashed=1;exitX=1;exitY=1;exitDx=0;exitDy=0;entryX=0.5;entryY=1;entryDx=0;entryDy=0;edgeStyle=orthogonalEdgeStyle;" parent="CeSif-LkQ0VTNuqgXHJz-1" source="NnDIAgsHRutLFN9ROoSn-47" target="NnDIAgsHRutLFN9ROoSn-40" edge="1">
                    <mxGeometry width="50" height="50" relative="1" as="geometry">
                        <mxPoint x="140.00213562373108" y="464.14213562373106" as="sourcePoint"/>
                        <mxPoint x="185.86" y="410" as="targetPoint"/>
                    </mxGeometry>
                </mxCell>
                <mxCell id="ZxbC2Xd3HvjLgOjPFKle-14" value="&lt;font color=&quot;#000000&quot;&gt;parent&lt;/font&gt;" style="ellipse;whiteSpace=wrap;html=1;aspect=fixed;strokeColor=#006EAF;strokeWidth=2;fillColor=#1ba1e2;fontColor=#ffffff;" parent="CeSif-LkQ0VTNuqgXHJz-1" vertex="1">
                    <mxGeometry x="240" y="840" width="40" height="40" as="geometry"/>
                </mxCell>
                <mxCell id="ZxbC2Xd3HvjLgOjPFKle-15" value="&lt;font color=&quot;#000000&quot;&gt;deleting&lt;/font&gt;" style="ellipse;whiteSpace=wrap;html=1;aspect=fixed;strokeColor=#FFB366;strokeWidth=2;fillColor=#1ba1e2;fontColor=#ffffff;" parent="CeSif-LkQ0VTNuqgXHJz-1" vertex="1">
                    <mxGeometry x="180" y="900" width="40" height="40" as="geometry"/>
                </mxCell>
                <mxCell id="ZxbC2Xd3HvjLgOjPFKle-16" value="" style="endArrow=none;html=1;strokeColor=#000000;strokeWidth=2;exitX=0;exitY=1;exitDx=0;exitDy=0;entryX=1;entryY=0;entryDx=0;entryDy=0;" parent="CeSif-LkQ0VTNuqgXHJz-1" source="ZxbC2Xd3HvjLgOjPFKle-14" target="ZxbC2Xd3HvjLgOjPFKle-15" edge="1">
                    <mxGeometry width="50" height="50" relative="1" as="geometry">
                        <mxPoint x="145.85786437626894" y="894.1421356237311" as="sourcePoint"/>
                        <mxPoint x="114.14213562373106" y="925.8578643762689" as="targetPoint"/>
                    </mxGeometry>
                </mxCell>
                <mxCell id="ZxbC2Xd3HvjLgOjPFKle-17" value="" style="endArrow=none;html=1;strokeColor=#000000;strokeWidth=2;entryX=1;entryY=1;entryDx=0;entryDy=0;exitX=0;exitY=0;exitDx=0;exitDy=0;" parent="CeSif-LkQ0VTNuqgXHJz-1" source="ZxbC2Xd3HvjLgOjPFKle-19" target="ZxbC2Xd3HvjLgOjPFKle-15" edge="1">
                    <mxGeometry width="50" height="50" relative="1" as="geometry">
                        <mxPoint x="214.14213562373106" y="965.8578643762689" as="sourcePoint"/>
                        <mxPoint x="164.14213562373106" y="915.8578643762689" as="targetPoint"/>
                    </mxGeometry>
                </mxCell>
                <mxCell id="ZxbC2Xd3HvjLgOjPFKle-18" value="" style="html=1;shadow=0;dashed=0;align=center;verticalAlign=middle;shape=mxgraph.arrows2.arrow;dy=0.45;dx=30.5;notch=0;strokeColor=none;fillColor=#FF9933;" parent="CeSif-LkQ0VTNuqgXHJz-1" vertex="1">
                    <mxGeometry x="310" y="900" width="50" height="40" as="geometry"/>
                </mxCell>
                <mxCell id="ZxbC2Xd3HvjLgOjPFKle-19" value="&lt;font color=&quot;#000000&quot;&gt;replacing&lt;/font&gt;" style="ellipse;whiteSpace=wrap;html=1;aspect=fixed;strokeColor=#006EAF;strokeWidth=2;fillColor=#1ba1e2;fontColor=#ffffff;" parent="CeSif-LkQ0VTNuqgXHJz-1" vertex="1">
                    <mxGeometry x="240" y="960" width="40" height="40" as="geometry"/>
                </mxCell>
                <mxCell id="ZxbC2Xd3HvjLgOjPFKle-20" value="" style="ellipse;whiteSpace=wrap;html=1;aspect=fixed;strokeColor=#006EAF;strokeWidth=2;fillColor=#1ba1e2;fontColor=#ffffff;" parent="CeSif-LkQ0VTNuqgXHJz-1" vertex="1">
                    <mxGeometry x="280" y="1020" width="40" height="40" as="geometry"/>
                </mxCell>
                <mxCell id="ZxbC2Xd3HvjLgOjPFKle-21" value="" style="ellipse;whiteSpace=wrap;html=1;aspect=fixed;strokeColor=#006EAF;strokeWidth=2;fillColor=#1ba1e2;fontColor=#ffffff;" parent="CeSif-LkQ0VTNuqgXHJz-1" vertex="1">
                    <mxGeometry x="200" y="1020" width="40" height="40" as="geometry"/>
                </mxCell>
                <mxCell id="ZxbC2Xd3HvjLgOjPFKle-22" value="" style="endArrow=none;html=1;strokeColor=#000000;strokeWidth=2;entryX=0;entryY=1;entryDx=0;entryDy=0;exitX=1;exitY=0;exitDx=0;exitDy=0;" parent="CeSif-LkQ0VTNuqgXHJz-1" source="ZxbC2Xd3HvjLgOjPFKle-21" target="ZxbC2Xd3HvjLgOjPFKle-19" edge="1">
                    <mxGeometry width="50" height="50" relative="1" as="geometry">
                        <mxPoint x="284.14213562373106" y="975.8578643762689" as="sourcePoint"/>
                        <mxPoint x="315.85786437626894" y="944.1421356237311" as="targetPoint"/>
                    </mxGeometry>
                </mxCell>
                <mxCell id="ZxbC2Xd3HvjLgOjPFKle-23" value="" style="endArrow=none;html=1;strokeColor=#000000;strokeWidth=2;entryX=0;entryY=0;entryDx=0;entryDy=0;exitX=1;exitY=1;exitDx=0;exitDy=0;" parent="CeSif-LkQ0VTNuqgXHJz-1" source="ZxbC2Xd3HvjLgOjPFKle-19" target="ZxbC2Xd3HvjLgOjPFKle-20" edge="1">
                    <mxGeometry width="50" height="50" relative="1" as="geometry">
                        <mxPoint x="294.14213562373106" y="985.8578643762689" as="sourcePoint"/>
                        <mxPoint x="325.85786437626894" y="954.1421356237311" as="targetPoint"/>
                    </mxGeometry>
                </mxCell>
                <mxCell id="ZxbC2Xd3HvjLgOjPFKle-35" value="&lt;font color=&quot;#000000&quot;&gt;predecessor&lt;/font&gt;" style="ellipse;whiteSpace=wrap;html=1;aspect=fixed;strokeColor=#006EAF;strokeWidth=2;fillColor=#1ba1e2;fontColor=#ffffff;" parent="CeSif-LkQ0VTNuqgXHJz-1" vertex="1">
                    <mxGeometry x="100" y="860" width="40" height="40" as="geometry"/>
                </mxCell>
                <mxCell id="cnDm8LQTO2a0mghyWMSx-0" value="" style="endArrow=classic;html=1;curved=1;strokeColor=#FFB366;strokeWidth=2;dashed=1;exitX=0;exitY=1;exitDx=0;exitDy=0;entryX=0.5;entryY=1;entryDx=0;entryDy=0;edgeStyle=orthogonalEdgeStyle;" parent="CeSif-LkQ0VTNuqgXHJz-1" source="CeSif-LkQ0VTNuqgXHJz-3" target="CeSif-LkQ0VTNuqgXHJz-2" edge="1">
                    <mxGeometry width="50" height="50" relative="1" as="geometry">
                        <mxPoint x="424.14213562373106" y="144.14213562373106" as="sourcePoint"/>
                        <mxPoint x="470" y="90" as="targetPoint"/>
                    </mxGeometry>
                </mxCell>
                <mxCell id="cnDm8LQTO2a0mghyWMSx-1" value="" style="endArrow=classic;html=1;curved=1;strokeColor=#FFB366;strokeWidth=2;dashed=1;exitX=1;exitY=1;exitDx=0;exitDy=0;entryX=0.5;entryY=1;entryDx=0;entryDy=0;edgeStyle=orthogonalEdgeStyle;" parent="CeSif-LkQ0VTNuqgXHJz-1" source="CeSif-LkQ0VTNuqgXHJz-23" target="CeSif-LkQ0VTNuqgXHJz-3" edge="1">
                    <mxGeometry width="50" height="50" relative="1" as="geometry">
                        <mxPoint x="195.85786437626894" y="144.14213562373106" as="sourcePoint"/>
                        <mxPoint x="150" y="90" as="targetPoint"/>
                    </mxGeometry>
                </mxCell>
                <mxCell id="cnDm8LQTO2a0mghyWMSx-2" value="&lt;font color=&quot;#000000&quot;&gt;parent&lt;/font&gt;" style="ellipse;whiteSpace=wrap;html=1;aspect=fixed;strokeColor=#006EAF;strokeWidth=2;fillColor=#1ba1e2;fontColor=#ffffff;" parent="CeSif-LkQ0VTNuqgXHJz-1" vertex="1">
                    <mxGeometry x="360" y="40" width="40" height="40" as="geometry"/>
                </mxCell>
                <mxCell id="cnDm8LQTO2a0mghyWMSx-4" value="" style="endArrow=none;html=1;strokeColor=#000000;strokeWidth=2;exitX=1;exitY=1;exitDx=0;exitDy=0;entryX=0;entryY=1;entryDx=0;entryDy=0;" parent="CeSif-LkQ0VTNuqgXHJz-1" source="cnDm8LQTO2a0mghyWMSx-2" target="cnDm8LQTO2a0mghyWMSx-6" edge="1">
                    <mxGeometry width="50" height="50" relative="1" as="geometry">
                        <mxPoint x="445.85786437626894" y="94.14213562373106" as="sourcePoint"/>
                        <mxPoint x="425.85786437626894" y="105.85786437626894" as="targetPoint"/>
                    </mxGeometry>
                </mxCell>
                <mxCell id="cnDm8LQTO2a0mghyWMSx-6" value="&lt;font color=&quot;#000000&quot;&gt;replacing&lt;/font&gt;" style="ellipse;whiteSpace=wrap;html=1;aspect=fixed;strokeColor=#006EAF;strokeWidth=2;fillColor=#1ba1e2;fontColor=#ffffff;direction=south;" parent="CeSif-LkQ0VTNuqgXHJz-1" vertex="1">
                    <mxGeometry x="420" y="100" width="40" height="40" as="geometry"/>
                </mxCell>
                <mxCell id="cnDm8LQTO2a0mghyWMSx-7" value="" style="endArrow=classic;html=1;curved=1;strokeColor=#FFB366;strokeWidth=2;dashed=1;exitX=1;exitY=1;exitDx=0;exitDy=0;entryX=0.5;entryY=1;entryDx=0;entryDy=0;edgeStyle=orthogonalEdgeStyle;" parent="CeSif-LkQ0VTNuqgXHJz-1" source="cnDm8LQTO2a0mghyWMSx-6" target="cnDm8LQTO2a0mghyWMSx-2" edge="1">
                    <mxGeometry width="50" height="50" relative="1" as="geometry">
                        <mxPoint x="425.85786437626894" y="134.14213562373106" as="sourcePoint"/>
                        <mxPoint x="710" y="90" as="targetPoint"/>
                    </mxGeometry>
                </mxCell>
                <mxCell id="t_7_n_dgQgkT9vQ52j__-0" value="" style="endArrow=none;html=1;strokeColor=#000000;strokeWidth=2;exitX=1;exitY=0;exitDx=0;exitDy=0;dashed=1;" parent="CeSif-LkQ0VTNuqgXHJz-1" source="CeSif-LkQ0VTNuqgXHJz-23" edge="1">
                    <mxGeometry width="50" height="50" relative="1" as="geometry">
                        <mxPoint x="404.14213562373106" y="84.14213562373106" as="sourcePoint"/>
                        <mxPoint x="300" y="220" as="targetPoint"/>
                    </mxGeometry>
                </mxCell>
                <mxCell id="t_7_n_dgQgkT9vQ52j__-1" value="" style="endArrow=none;html=1;strokeColor=#000000;strokeWidth=2;exitX=1;exitY=0;exitDx=0;exitDy=0;dashed=1;" parent="CeSif-LkQ0VTNuqgXHJz-1" source="cnDm8LQTO2a0mghyWMSx-6" edge="1">
                    <mxGeometry width="50" height="50" relative="1" as="geometry">
                        <mxPoint x="284.14213562373106" y="204.14213562373106" as="sourcePoint"/>
                        <mxPoint x="480" y="160" as="targetPoint"/>
                    </mxGeometry>
                </mxCell>
                <mxCell id="t_7_n_dgQgkT9vQ52j__-4" value="&lt;font color=&quot;#000000&quot;&gt;parent&lt;/font&gt;" style="ellipse;whiteSpace=wrap;html=1;aspect=fixed;strokeColor=#006EAF;strokeWidth=2;fillColor=#1ba1e2;fontColor=#ffffff;" parent="CeSif-LkQ0VTNuqgXHJz-1" vertex="1">
                    <mxGeometry x="490" y="280" width="40" height="40" as="geometry"/>
                </mxCell>
                <mxCell id="t_7_n_dgQgkT9vQ52j__-6" value="" style="endArrow=none;html=1;strokeColor=#000000;strokeWidth=2;exitX=0;exitY=1;exitDx=0;exitDy=0;entryX=0;entryY=0;entryDx=0;entryDy=0;" parent="CeSif-LkQ0VTNuqgXHJz-1" source="t_7_n_dgQgkT9vQ52j__-4" target="t_7_n_dgQgkT9vQ52j__-8" edge="1">
                    <mxGeometry width="50" height="50" relative="1" as="geometry">
                        <mxPoint x="395.85786437626894" y="404.14213562373106" as="sourcePoint"/>
                        <mxPoint x="464.14213562373106" y="345.85786437626894" as="targetPoint"/>
                    </mxGeometry>
                </mxCell>
                <mxCell id="t_7_n_dgQgkT9vQ52j__-8" value="&lt;font color=&quot;#000000&quot;&gt;replacing&lt;/font&gt;" style="ellipse;whiteSpace=wrap;html=1;aspect=fixed;strokeColor=#006EAF;strokeWidth=2;fillColor=#1ba1e2;fontColor=#ffffff;direction=south;" parent="CeSif-LkQ0VTNuqgXHJz-1" vertex="1">
                    <mxGeometry x="430" y="340" width="40" height="40" as="geometry"/>
                </mxCell>
                <mxCell id="t_7_n_dgQgkT9vQ52j__-9" value="" style="endArrow=classic;html=1;curved=1;strokeColor=#FFB366;strokeWidth=2;dashed=1;entryX=0.5;entryY=1;entryDx=0;entryDy=0;edgeStyle=orthogonalEdgeStyle;exitX=0;exitY=1;exitDx=0;exitDy=0;" parent="CeSif-LkQ0VTNuqgXHJz-1" target="t_7_n_dgQgkT9vQ52j__-10" edge="1">
                    <mxGeometry width="50" height="50" relative="1" as="geometry">
                        <mxPoint x="435.85786437626894" y="374.14213562373106" as="sourcePoint"/>
                        <mxPoint x="508.68000000000006" y="338.3" as="targetPoint"/>
                        <Array as="points">
                            <mxPoint x="436" y="400"/>
                            <mxPoint x="390" y="400"/>
                        </Array>
                    </mxGeometry>
                </mxCell>
                <mxCell id="t_7_n_dgQgkT9vQ52j__-10" value="&lt;font color=&quot;#000000&quot;&gt;predecessor&lt;/font&gt;" style="ellipse;whiteSpace=wrap;html=1;aspect=fixed;strokeColor=#006EAF;strokeWidth=2;fillColor=#1ba1e2;fontColor=#ffffff;" parent="CeSif-LkQ0VTNuqgXHJz-1" vertex="1">
                    <mxGeometry x="370" y="300" width="40" height="40" as="geometry"/>
                </mxCell>
                <mxCell id="oSlcw_PsyuO7I7KwLoo5-0" value="" style="endArrow=none;html=1;strokeColor=#000000;strokeWidth=2;entryX=1;entryY=0;entryDx=0;entryDy=0;dashed=1;" parent="CeSif-LkQ0VTNuqgXHJz-1" target="ZxbC2Xd3HvjLgOjPFKle-1" edge="1">
                    <mxGeometry width="50" height="50" relative="1" as="geometry">
                        <mxPoint x="170" y="280" as="sourcePoint"/>
                        <mxPoint x="124.14213562373106" y="465.85786437626894" as="targetPoint"/>
                    </mxGeometry>
                </mxCell>
                <mxCell id="oSlcw_PsyuO7I7KwLoo5-1" value="" style="endArrow=none;html=1;strokeColor=#000000;strokeWidth=2;exitX=0;exitY=0;exitDx=0;exitDy=0;dashed=1;" parent="CeSif-LkQ0VTNuqgXHJz-1" source="NnDIAgsHRutLFN9ROoSn-39" edge="1">
                    <mxGeometry width="50" height="50" relative="1" as="geometry">
                        <mxPoint x="160" y="450" as="sourcePoint"/>
                        <mxPoint x="210" y="260" as="targetPoint"/>
                    </mxGeometry>
                </mxCell>
                <mxCell id="oSlcw_PsyuO7I7KwLoo5-2" value="" style="endArrow=none;html=1;strokeColor=#000000;strokeWidth=2;exitX=1;exitY=0;exitDx=0;exitDy=0;dashed=1;" parent="CeSif-LkQ0VTNuqgXHJz-1" source="NnDIAgsHRutLFN9ROoSn-47" edge="1">
                    <mxGeometry width="50" height="50" relative="1" as="geometry">
                        <mxPoint x="170" y="460" as="sourcePoint"/>
                        <mxPoint x="290" y="460" as="targetPoint"/>
                    </mxGeometry>
                </mxCell>
                <mxCell id="oSlcw_PsyuO7I7KwLoo5-3" value="" style="endArrow=none;html=1;strokeColor=#000000;strokeWidth=2;exitX=1;exitY=0;exitDx=0;exitDy=0;dashed=1;" parent="CeSif-LkQ0VTNuqgXHJz-1" source="t_7_n_dgQgkT9vQ52j__-10" edge="1">
                    <mxGeometry width="50" height="50" relative="1" as="geometry">
                        <mxPoint x="180" y="470" as="sourcePoint"/>
                        <mxPoint x="430" y="280" as="targetPoint"/>
                    </mxGeometry>
                </mxCell>
                <mxCell id="oSlcw_PsyuO7I7KwLoo5-4" value="" style="endArrow=none;html=1;strokeColor=#000000;strokeWidth=2;exitX=0;exitY=0;exitDx=0;exitDy=0;dashed=1;" parent="CeSif-LkQ0VTNuqgXHJz-1" source="t_7_n_dgQgkT9vQ52j__-4" edge="1">
                    <mxGeometry width="50" height="50" relative="1" as="geometry">
                        <mxPoint x="190" y="480" as="sourcePoint"/>
                        <mxPoint x="470" y="260" as="targetPoint"/>
                    </mxGeometry>
                </mxCell>
                <mxCell id="oSlcw_PsyuO7I7KwLoo5-5" value="" style="endArrow=none;html=1;strokeColor=#000000;strokeWidth=2;exitX=1;exitY=0;exitDx=0;exitDy=0;dashed=1;" parent="CeSif-LkQ0VTNuqgXHJz-1" source="t_7_n_dgQgkT9vQ52j__-8" edge="1">
                    <mxGeometry width="50" height="50" relative="1" as="geometry">
                        <mxPoint x="200" y="490" as="sourcePoint"/>
                        <mxPoint x="490" y="400" as="targetPoint"/>
                    </mxGeometry>
                </mxCell>
                <mxCell id="kH1mqgI99tdq7Psm1gzB-0" value="" style="endArrow=classic;html=1;curved=1;strokeColor=#FFB366;strokeWidth=2;dashed=1;exitX=0;exitY=1;exitDx=0;exitDy=0;entryX=0.5;entryY=1;entryDx=0;entryDy=0;edgeStyle=orthogonalEdgeStyle;" parent="CeSif-LkQ0VTNuqgXHJz-1" source="CeSif-LkQ0VTNuqgXHJz-13" target="CeSif-LkQ0VTNuqgXHJz-12" edge="1">
                    <mxGeometry width="50" height="50" relative="1" as="geometry">
                        <mxPoint x="255.85786437626894" y="444.14213562373106" as="sourcePoint"/>
                        <mxPoint x="210" y="390" as="targetPoint"/>
                    </mxGeometry>
                </mxCell>
                <mxCell id="kH1mqgI99tdq7Psm1gzB-1" value="" style="endArrow=classic;html=1;curved=1;strokeColor=#FFB366;strokeWidth=2;dashed=1;exitX=0;exitY=1;exitDx=0;exitDy=0;entryX=0.5;entryY=1;entryDx=0;entryDy=0;edgeStyle=orthogonalEdgeStyle;" parent="CeSif-LkQ0VTNuqgXHJz-1" source="NnDIAgsHRutLFN9ROoSn-2" target="CeSif-LkQ0VTNuqgXHJz-13" edge="1">
                    <mxGeometry width="50" height="50" relative="1" as="geometry">
                        <mxPoint x="195.85786437626894" y="624.1421356237311" as="sourcePoint"/>
                        <mxPoint x="150" y="570" as="targetPoint"/>
                        <Array as="points">
                            <mxPoint x="206" y="750"/>
                            <mxPoint x="180" y="750"/>
                            <mxPoint x="180" y="690"/>
                            <mxPoint x="200" y="690"/>
                        </Array>
                    </mxGeometry>
                </mxCell>
                <mxCell id="kH1mqgI99tdq7Psm1gzB-2" value="&lt;font color=&quot;#000000&quot;&gt;parent&lt;/font&gt;" style="ellipse;whiteSpace=wrap;html=1;aspect=fixed;strokeColor=#006EAF;strokeWidth=2;fillColor=#1ba1e2;fontColor=#ffffff;" parent="CeSif-LkQ0VTNuqgXHJz-1" vertex="1">
                    <mxGeometry x="380" y="520" width="40" height="40" as="geometry"/>
                </mxCell>
                <mxCell id="kH1mqgI99tdq7Psm1gzB-4" value="" style="endArrow=none;html=1;strokeColor=#000000;strokeWidth=2;exitX=1;exitY=1;exitDx=0;exitDy=0;entryX=0;entryY=0;entryDx=0;entryDy=0;" parent="CeSif-LkQ0VTNuqgXHJz-1" source="kH1mqgI99tdq7Psm1gzB-2" target="kH1mqgI99tdq7Psm1gzB-6" edge="1">
                    <mxGeometry width="50" height="50" relative="1" as="geometry">
                        <mxPoint x="405.85786437626894" y="574.1421356237311" as="sourcePoint"/>
                        <mxPoint x="445.85786437626894" y="585.8578643762689" as="targetPoint"/>
                    </mxGeometry>
                </mxCell>
                <mxCell id="kH1mqgI99tdq7Psm1gzB-6" value="&lt;font color=&quot;#000000&quot;&gt;replacing&lt;/font&gt;" style="ellipse;whiteSpace=wrap;html=1;aspect=fixed;strokeColor=#006EAF;strokeWidth=2;fillColor=#1ba1e2;fontColor=#ffffff;" parent="CeSif-LkQ0VTNuqgXHJz-1" vertex="1">
                    <mxGeometry x="440" y="585" width="40" height="40" as="geometry"/>
                </mxCell>
                <mxCell id="kH1mqgI99tdq7Psm1gzB-7" value="" style="ellipse;whiteSpace=wrap;html=1;aspect=fixed;strokeColor=#006EAF;strokeWidth=2;fillColor=#1ba1e2;fontColor=#ffffff;" parent="CeSif-LkQ0VTNuqgXHJz-1" vertex="1">
                    <mxGeometry x="480" y="640" width="40" height="40" as="geometry"/>
                </mxCell>
                <mxCell id="kH1mqgI99tdq7Psm1gzB-8" value="" style="ellipse;whiteSpace=wrap;html=1;aspect=fixed;strokeColor=#006EAF;strokeWidth=2;fillColor=#1ba1e2;fontColor=#ffffff;" parent="CeSif-LkQ0VTNuqgXHJz-1" vertex="1">
                    <mxGeometry x="400" y="640" width="40" height="40" as="geometry"/>
                </mxCell>
                <mxCell id="kH1mqgI99tdq7Psm1gzB-9" value="" style="endArrow=none;html=1;strokeColor=#000000;strokeWidth=2;entryX=0;entryY=1;entryDx=0;entryDy=0;exitX=1;exitY=0;exitDx=0;exitDy=0;" parent="CeSif-LkQ0VTNuqgXHJz-1" source="kH1mqgI99tdq7Psm1gzB-8" target="kH1mqgI99tdq7Psm1gzB-6" edge="1">
                    <mxGeometry width="50" height="50" relative="1" as="geometry">
                        <mxPoint x="544.1421356237311" y="655.8578643762689" as="sourcePoint"/>
                        <mxPoint x="575.8578643762689" y="624.1421356237311" as="targetPoint"/>
                    </mxGeometry>
                </mxCell>
                <mxCell id="kH1mqgI99tdq7Psm1gzB-10" value="" style="endArrow=none;html=1;strokeColor=#000000;strokeWidth=2;entryX=0;entryY=0;entryDx=0;entryDy=0;exitX=1;exitY=1;exitDx=0;exitDy=0;" parent="CeSif-LkQ0VTNuqgXHJz-1" source="kH1mqgI99tdq7Psm1gzB-6" target="kH1mqgI99tdq7Psm1gzB-7" edge="1">
                    <mxGeometry width="50" height="50" relative="1" as="geometry">
                        <mxPoint x="554.1421356237311" y="665.8578643762689" as="sourcePoint"/>
                        <mxPoint x="585.8578643762689" y="634.1421356237311" as="targetPoint"/>
                    </mxGeometry>
                </mxCell>
                <mxCell id="kH1mqgI99tdq7Psm1gzB-11" value="" style="endArrow=classic;html=1;curved=1;strokeColor=#FFB366;strokeWidth=2;dashed=1;exitX=0;exitY=1;exitDx=0;exitDy=0;entryX=0.5;entryY=1;entryDx=0;entryDy=0;edgeStyle=orthogonalEdgeStyle;" parent="CeSif-LkQ0VTNuqgXHJz-1" source="kH1mqgI99tdq7Psm1gzB-8" target="kH1mqgI99tdq7Psm1gzB-2" edge="1">
                    <mxGeometry width="50" height="50" relative="1" as="geometry">
                        <mxPoint x="445.85786437626894" y="614.1421356237311" as="sourcePoint"/>
                        <mxPoint x="470" y="390" as="targetPoint"/>
                        <Array as="points">
                            <mxPoint x="406" y="690"/>
                            <mxPoint x="380" y="690"/>
                            <mxPoint x="380" y="620"/>
                            <mxPoint x="400" y="620"/>
                        </Array>
                    </mxGeometry>
                </mxCell>
                <mxCell id="kH1mqgI99tdq7Psm1gzB-13" value="" style="endArrow=classic;html=1;curved=1;strokeColor=#FFB366;strokeWidth=2;dashed=1;exitX=0;exitY=1;exitDx=0;exitDy=0;entryX=0.5;entryY=1;entryDx=0;entryDy=0;edgeStyle=orthogonalEdgeStyle;" parent="CeSif-LkQ0VTNuqgXHJz-1" source="ZxbC2Xd3HvjLgOjPFKle-15" target="ZxbC2Xd3HvjLgOjPFKle-35" edge="1">
                    <mxGeometry width="50" height="50" relative="1" as="geometry">
                        <mxPoint x="159.99786437626892" y="984.1421356237311" as="sourcePoint"/>
                        <mxPoint x="114.14" y="930" as="targetPoint"/>
                        <Array as="points">
                            <mxPoint x="186" y="950"/>
                            <mxPoint x="120" y="950"/>
                        </Array>
                    </mxGeometry>
                </mxCell>
                <mxCell id="kH1mqgI99tdq7Psm1gzB-14" value="" style="endArrow=classic;html=1;curved=1;strokeColor=#FFB366;strokeWidth=2;dashed=1;exitX=0;exitY=1;exitDx=0;exitDy=0;entryX=0.5;entryY=1;entryDx=0;entryDy=0;edgeStyle=orthogonalEdgeStyle;" parent="CeSif-LkQ0VTNuqgXHJz-1" source="ZxbC2Xd3HvjLgOjPFKle-21" target="ZxbC2Xd3HvjLgOjPFKle-15" edge="1">
                    <mxGeometry width="50" height="50" relative="1" as="geometry">
                        <mxPoint x="169.9978643762688" y="994.1421356237311" as="sourcePoint"/>
                        <mxPoint x="124.1400000000001" y="940" as="targetPoint"/>
                        <Array as="points">
                            <mxPoint x="206" y="1070"/>
                            <mxPoint x="180" y="1070"/>
                            <mxPoint x="180" y="1020"/>
                            <mxPoint x="200" y="1020"/>
                        </Array>
                    </mxGeometry>
                </mxCell>
                <mxCell id="kH1mqgI99tdq7Psm1gzB-15" value="&lt;font color=&quot;#000000&quot;&gt;parent&lt;/font&gt;" style="ellipse;whiteSpace=wrap;html=1;aspect=fixed;strokeColor=#006EAF;strokeWidth=2;fillColor=#1ba1e2;fontColor=#ffffff;" parent="CeSif-LkQ0VTNuqgXHJz-1" vertex="1">
                    <mxGeometry x="520" y="840" width="40" height="40" as="geometry"/>
                </mxCell>
                <mxCell id="kH1mqgI99tdq7Psm1gzB-17" value="" style="endArrow=none;html=1;strokeColor=#000000;strokeWidth=2;exitX=0;exitY=1;exitDx=0;exitDy=0;entryX=1;entryY=0;entryDx=0;entryDy=0;" parent="CeSif-LkQ0VTNuqgXHJz-1" source="kH1mqgI99tdq7Psm1gzB-15" target="kH1mqgI99tdq7Psm1gzB-19" edge="1">
                    <mxGeometry width="50" height="50" relative="1" as="geometry">
                        <mxPoint x="425.85786437626894" y="894.1421356237311" as="sourcePoint"/>
                        <mxPoint x="494.14213562373106" y="905.8578643762689" as="targetPoint"/>
                    </mxGeometry>
                </mxCell>
                <mxCell id="kH1mqgI99tdq7Psm1gzB-19" value="&lt;font color=&quot;#000000&quot;&gt;replacing&lt;/font&gt;" style="ellipse;whiteSpace=wrap;html=1;aspect=fixed;strokeColor=#006EAF;strokeWidth=2;fillColor=#1ba1e2;fontColor=#ffffff;" parent="CeSif-LkQ0VTNuqgXHJz-1" vertex="1">
                    <mxGeometry x="460" y="900" width="40" height="40" as="geometry"/>
                </mxCell>
                <mxCell id="kH1mqgI99tdq7Psm1gzB-20" value="" style="ellipse;whiteSpace=wrap;html=1;aspect=fixed;strokeColor=#006EAF;strokeWidth=2;fillColor=#1ba1e2;fontColor=#ffffff;" parent="CeSif-LkQ0VTNuqgXHJz-1" vertex="1">
                    <mxGeometry x="500" y="960" width="40" height="40" as="geometry"/>
                </mxCell>
                <mxCell id="kH1mqgI99tdq7Psm1gzB-21" value="" style="ellipse;whiteSpace=wrap;html=1;aspect=fixed;strokeColor=#006EAF;strokeWidth=2;fillColor=#1ba1e2;fontColor=#ffffff;" parent="CeSif-LkQ0VTNuqgXHJz-1" vertex="1">
                    <mxGeometry x="420" y="960" width="40" height="40" as="geometry"/>
                </mxCell>
                <mxCell id="kH1mqgI99tdq7Psm1gzB-22" value="" style="endArrow=none;html=1;strokeColor=#000000;strokeWidth=2;entryX=0;entryY=1;entryDx=0;entryDy=0;exitX=1;exitY=0;exitDx=0;exitDy=0;" parent="CeSif-LkQ0VTNuqgXHJz-1" source="kH1mqgI99tdq7Psm1gzB-21" target="kH1mqgI99tdq7Psm1gzB-19" edge="1">
                    <mxGeometry width="50" height="50" relative="1" as="geometry">
                        <mxPoint x="504.14213562373106" y="915.8578643762689" as="sourcePoint"/>
                        <mxPoint x="535.8578643762689" y="884.1421356237311" as="targetPoint"/>
                    </mxGeometry>
                </mxCell>
                <mxCell id="kH1mqgI99tdq7Psm1gzB-23" value="" style="endArrow=none;html=1;strokeColor=#000000;strokeWidth=2;entryX=0;entryY=0;entryDx=0;entryDy=0;exitX=1;exitY=1;exitDx=0;exitDy=0;" parent="CeSif-LkQ0VTNuqgXHJz-1" source="kH1mqgI99tdq7Psm1gzB-19" target="kH1mqgI99tdq7Psm1gzB-20" edge="1">
                    <mxGeometry width="50" height="50" relative="1" as="geometry">
                        <mxPoint x="514.1421356237311" y="925.8578643762689" as="sourcePoint"/>
                        <mxPoint x="545.8578643762689" y="894.1421356237311" as="targetPoint"/>
                    </mxGeometry>
                </mxCell>
                <mxCell id="kH1mqgI99tdq7Psm1gzB-24" value="&lt;font color=&quot;#000000&quot;&gt;predecessor&lt;/font&gt;" style="ellipse;whiteSpace=wrap;html=1;aspect=fixed;strokeColor=#006EAF;strokeWidth=2;fillColor=#1ba1e2;fontColor=#ffffff;" parent="CeSif-LkQ0VTNuqgXHJz-1" vertex="1">
                    <mxGeometry x="380" y="860" width="40" height="40" as="geometry"/>
                </mxCell>
                <mxCell id="kH1mqgI99tdq7Psm1gzB-25" value="" style="endArrow=classic;html=1;curved=1;strokeColor=#FFB366;strokeWidth=2;dashed=1;exitX=0;exitY=1;exitDx=0;exitDy=0;entryX=0.5;entryY=1;entryDx=0;entryDy=0;edgeStyle=orthogonalEdgeStyle;" parent="CeSif-LkQ0VTNuqgXHJz-1" source="kH1mqgI99tdq7Psm1gzB-21" target="kH1mqgI99tdq7Psm1gzB-24" edge="1">
                    <mxGeometry width="50" height="50" relative="1" as="geometry">
                        <mxPoint x="465.85786437626894" y="934.1421356237311" as="sourcePoint"/>
                        <mxPoint x="394.14" y="930" as="targetPoint"/>
                        <Array as="points">
                            <mxPoint x="426" y="1010"/>
                            <mxPoint x="380" y="1010"/>
                            <mxPoint x="380" y="970"/>
                            <mxPoint x="400" y="970"/>
                        </Array>
                    </mxGeometry>
                </mxCell>
                <mxCell id="kH1mqgI99tdq7Psm1gzB-27" value="" style="endArrow=none;html=1;strokeColor=#000000;strokeWidth=2;entryX=1;entryY=0;entryDx=0;entryDy=0;dashed=1;" parent="CeSif-LkQ0VTNuqgXHJz-1" target="ZxbC2Xd3HvjLgOjPFKle-35" edge="1">
                    <mxGeometry width="50" height="50" relative="1" as="geometry">
                        <mxPoint x="160" y="840" as="sourcePoint"/>
                        <mxPoint x="224.14213562373106" y="915.8578643762689" as="targetPoint"/>
                    </mxGeometry>
                </mxCell>
                <mxCell id="kH1mqgI99tdq7Psm1gzB-28" value="" style="endArrow=none;html=1;strokeColor=#000000;strokeWidth=2;dashed=1;" parent="CeSif-LkQ0VTNuqgXHJz-1" edge="1">
                    <mxGeometry width="50" height="50" relative="1" as="geometry">
                        <mxPoint x="246" y="840" as="sourcePoint"/>
                        <mxPoint x="220" y="820" as="targetPoint"/>
                    </mxGeometry>
                </mxCell>
                <mxCell id="kH1mqgI99tdq7Psm1gzB-29" value="" style="endArrow=none;html=1;strokeColor=#000000;strokeWidth=2;entryX=1;entryY=0;entryDx=0;entryDy=0;dashed=1;" parent="CeSif-LkQ0VTNuqgXHJz-1" target="kH1mqgI99tdq7Psm1gzB-24" edge="1">
                    <mxGeometry width="50" height="50" relative="1" as="geometry">
                        <mxPoint x="440" y="840" as="sourcePoint"/>
                        <mxPoint x="244.14213562373106" y="935.8578643762689" as="targetPoint"/>
                    </mxGeometry>
                </mxCell>
                <mxCell id="kH1mqgI99tdq7Psm1gzB-30" value="" style="endArrow=none;html=1;strokeColor=#000000;strokeWidth=2;exitX=0;exitY=0;exitDx=0;exitDy=0;dashed=1;" parent="CeSif-LkQ0VTNuqgXHJz-1" source="kH1mqgI99tdq7Psm1gzB-15" edge="1">
                    <mxGeometry width="50" height="50" relative="1" as="geometry">
                        <mxPoint x="285.85786437626894" y="914.1421356237311" as="sourcePoint"/>
                        <mxPoint x="500" y="820" as="targetPoint"/>
                    </mxGeometry>
                </mxCell>
                <mxCell id="0psC9PywafLdnC9q6suG-0" value="" style="shape=link;html=1;dashed=1;strokeColor=#000000;" parent="CeSif-LkQ0VTNuqgXHJz-1" edge="1">
                    <mxGeometry width="50" height="50" relative="1" as="geometry">
                        <mxPoint x="540" y="240" as="sourcePoint"/>
                        <mxPoint x="100" y="240" as="targetPoint"/>
                    </mxGeometry>
                </mxCell>
                <mxCell id="0psC9PywafLdnC9q6suG-1" value="" style="shape=link;html=1;dashed=1;strokeColor=#000000;" parent="CeSif-LkQ0VTNuqgXHJz-1" edge="1">
                    <mxGeometry width="50" height="50" relative="1" as="geometry">
                        <mxPoint x="540" y="480" as="sourcePoint"/>
                        <mxPoint x="100" y="480" as="targetPoint"/>
                    </mxGeometry>
                </mxCell>
                <mxCell id="0psC9PywafLdnC9q6suG-2" value="" style="shape=link;html=1;dashed=1;strokeColor=#000000;" parent="CeSif-LkQ0VTNuqgXHJz-1" edge="1">
                    <mxGeometry width="50" height="50" relative="1" as="geometry">
                        <mxPoint x="540" y="790" as="sourcePoint"/>
                        <mxPoint x="100" y="790" as="targetPoint"/>
                    </mxGeometry>
                </mxCell>
                <mxCell id="5RFCh3fF7SoO0D9QLWtu-0" value="" style="endArrow=classic;html=1;dashed=1;strokeColor=#FFB366;strokeWidth=2;" edge="1" parent="CeSif-LkQ0VTNuqgXHJz-1">
                    <mxGeometry width="50" height="50" relative="1" as="geometry">
                        <mxPoint x="414" y="9.5" as="sourcePoint"/>
                        <mxPoint x="464" y="9.5" as="targetPoint"/>
                    </mxGeometry>
                </mxCell>
                <mxCell id="5RFCh3fF7SoO0D9QLWtu-1" value="&lt;font color=&quot;#000000&quot; style=&quot;font-size: 14px&quot;&gt;&lt;b&gt;left thread&lt;/b&gt;&lt;/font&gt;" style="text;html=1;strokeColor=none;fillColor=none;align=center;verticalAlign=middle;whiteSpace=wrap;rounded=0;" vertex="1" parent="CeSif-LkQ0VTNuqgXHJz-1">
                    <mxGeometry x="464" width="90" height="20" as="geometry"/>
                </mxCell>
            </root>
        </mxGraphModel>
    </diagram>
    <diagram name="one_left_child" id="63Jo7blBp9nS1IMae8_x">
        <mxGraphModel dx="1770" dy="1010" grid="1" gridSize="10" guides="1" tooltips="1" connect="1" arrows="1" fold="1" page="1" pageScale="1" pageWidth="827" pageHeight="1169" math="0" shadow="0">
            <root>
                <mxCell id="lj5yNsDzuc8InLEuqnOJ-0"/>
                <mxCell id="lj5yNsDzuc8InLEuqnOJ-1" parent="lj5yNsDzuc8InLEuqnOJ-0"/>
                <mxCell id="mwaxXRz8MMceGY2sai_Y-0" value="" style="rounded=0;whiteSpace=wrap;html=1;fillColor=#FFFFFF;strokeColor=none;" parent="lj5yNsDzuc8InLEuqnOJ-1" vertex="1">
                    <mxGeometry x="60" y="20" width="400" height="240" as="geometry"/>
                </mxCell>
                <mxCell id="lj5yNsDzuc8InLEuqnOJ-2" value="&lt;font color=&quot;#000000&quot;&gt;parent&lt;/font&gt;" style="ellipse;whiteSpace=wrap;html=1;aspect=fixed;strokeColor=#006EAF;strokeWidth=2;fillColor=#1ba1e2;fontColor=#ffffff;" parent="lj5yNsDzuc8InLEuqnOJ-1" vertex="1">
                    <mxGeometry x="160" y="40" width="40" height="40" as="geometry"/>
                </mxCell>
                <mxCell id="lj5yNsDzuc8InLEuqnOJ-3" value="&lt;font color=&quot;#000000&quot;&gt;deleting&lt;/font&gt;" style="ellipse;whiteSpace=wrap;html=1;aspect=fixed;strokeColor=#FFB366;strokeWidth=2;fillColor=#1ba1e2;fontColor=#ffffff;" parent="lj5yNsDzuc8InLEuqnOJ-1" vertex="1">
                    <mxGeometry x="160" y="120" width="40" height="40" as="geometry"/>
                </mxCell>
                <mxCell id="lj5yNsDzuc8InLEuqnOJ-4" value="" style="endArrow=none;html=1;strokeColor=#000000;strokeWidth=2;exitX=0.5;exitY=1;exitDx=0;exitDy=0;entryX=0.5;entryY=0;entryDx=0;entryDy=0;" parent="lj5yNsDzuc8InLEuqnOJ-1" source="lj5yNsDzuc8InLEuqnOJ-2" target="lj5yNsDzuc8InLEuqnOJ-3" edge="1">
                    <mxGeometry width="50" height="50" relative="1" as="geometry">
                        <mxPoint x="185.85786437626894" y="114.14213562373106" as="sourcePoint"/>
                        <mxPoint x="154.14213562373106" y="145.85786437626894" as="targetPoint"/>
                    </mxGeometry>
                </mxCell>
                <mxCell id="lj5yNsDzuc8InLEuqnOJ-7" value="" style="html=1;shadow=0;dashed=0;align=center;verticalAlign=middle;shape=mxgraph.arrows2.arrow;dy=0.45;dx=30.5;notch=0;strokeColor=none;fillColor=#FF9933;" parent="lj5yNsDzuc8InLEuqnOJ-1" vertex="1">
                    <mxGeometry x="280" y="100" width="50" height="40" as="geometry"/>
                </mxCell>
                <mxCell id="lj5yNsDzuc8InLEuqnOJ-8" value="&lt;font color=&quot;#000000&quot;&gt;parent&lt;/font&gt;" style="ellipse;whiteSpace=wrap;html=1;aspect=fixed;strokeColor=#006EAF;strokeWidth=2;fillColor=#1ba1e2;fontColor=#ffffff;" parent="lj5yNsDzuc8InLEuqnOJ-1" vertex="1">
                    <mxGeometry x="380" y="40" width="40" height="40" as="geometry"/>
                </mxCell>
                <mxCell id="lj5yNsDzuc8InLEuqnOJ-9" value="" style="endArrow=none;html=1;strokeColor=#000000;strokeWidth=2;entryX=0.5;entryY=1;entryDx=0;entryDy=0;exitX=0.5;exitY=0;exitDx=0;exitDy=0;" parent="lj5yNsDzuc8InLEuqnOJ-1" source="lj5yNsDzuc8InLEuqnOJ-17" target="lj5yNsDzuc8InLEuqnOJ-8" edge="1">
                    <mxGeometry width="50" height="50" relative="1" as="geometry">
                        <mxPoint x="394.14213562373106" y="105.85786437626894" as="sourcePoint"/>
                        <mxPoint x="405.85786437626894" y="144.14213562373106" as="targetPoint"/>
                    </mxGeometry>
                </mxCell>
                <mxCell id="lj5yNsDzuc8InLEuqnOJ-15" value="&lt;font color=&quot;#000000&quot;&gt;replacing&lt;/font&gt;" style="ellipse;whiteSpace=wrap;html=1;aspect=fixed;strokeColor=#006EAF;strokeWidth=2;fillColor=#1ba1e2;fontColor=#ffffff;direction=south;" parent="lj5yNsDzuc8InLEuqnOJ-1" vertex="1">
                    <mxGeometry x="100" y="180" width="40" height="40" as="geometry"/>
                </mxCell>
                <mxCell id="lj5yNsDzuc8InLEuqnOJ-17" value="&lt;font color=&quot;#000000&quot;&gt;replacing&lt;/font&gt;" style="ellipse;whiteSpace=wrap;html=1;aspect=fixed;strokeColor=#006EAF;strokeWidth=2;fillColor=#1ba1e2;fontColor=#ffffff;" parent="lj5yNsDzuc8InLEuqnOJ-1" vertex="1">
                    <mxGeometry x="380" y="120" width="40" height="40" as="geometry"/>
                </mxCell>
                <mxCell id="ibYAhiEnzefZ6Hyl_Nf3-1" value="&lt;font color=&quot;#000000&quot;&gt;None&lt;/font&gt;" style="ellipse;whiteSpace=wrap;html=1;aspect=fixed;strokeColor=#006EAF;strokeWidth=2;fillColor=none;fontColor=#ffffff;dashed=1;" parent="lj5yNsDzuc8InLEuqnOJ-1" vertex="1">
                    <mxGeometry x="220" y="180" width="40" height="40" as="geometry"/>
                </mxCell>
                <mxCell id="iBkLn-Y5oIjKWa4U1acs-0" value="" style="endArrow=none;html=1;strokeColor=#000000;strokeWidth=2;entryX=1;entryY=1;entryDx=0;entryDy=0;exitX=0;exitY=0;exitDx=0;exitDy=0;" parent="lj5yNsDzuc8InLEuqnOJ-1" source="ibYAhiEnzefZ6Hyl_Nf3-1" target="lj5yNsDzuc8InLEuqnOJ-3" edge="1">
                    <mxGeometry width="50" height="50" relative="1" as="geometry">
                        <mxPoint x="430" y="130" as="sourcePoint"/>
                        <mxPoint x="430" y="90" as="targetPoint"/>
                    </mxGeometry>
                </mxCell>
                <mxCell id="iBkLn-Y5oIjKWa4U1acs-1" value="" style="endArrow=none;html=1;strokeColor=#000000;strokeWidth=2;entryX=0;entryY=1;entryDx=0;entryDy=0;exitX=0;exitY=0;exitDx=0;exitDy=0;" parent="lj5yNsDzuc8InLEuqnOJ-1" source="lj5yNsDzuc8InLEuqnOJ-15" target="lj5yNsDzuc8InLEuqnOJ-3" edge="1">
                    <mxGeometry width="50" height="50" relative="1" as="geometry">
                        <mxPoint x="235.85786437626894" y="195.85786437626894" as="sourcePoint"/>
                        <mxPoint x="204.14213562373106" y="164.14213562373106" as="targetPoint"/>
                    </mxGeometry>
                </mxCell>
                <mxCell id="iBkLn-Y5oIjKWa4U1acs-2" value="" style="endArrow=none;html=1;strokeColor=#000000;strokeWidth=2;entryX=1;entryY=1;entryDx=0;entryDy=0;dashed=1;" parent="lj5yNsDzuc8InLEuqnOJ-1" target="lj5yNsDzuc8InLEuqnOJ-15" edge="1">
                    <mxGeometry width="50" height="50" relative="1" as="geometry">
                        <mxPoint x="80" y="240" as="sourcePoint"/>
                        <mxPoint x="175.85786437626894" y="164.14213562373106" as="targetPoint"/>
                    </mxGeometry>
                </mxCell>
                <mxCell id="iBkLn-Y5oIjKWa4U1acs-3" value="" style="endArrow=none;html=1;strokeColor=#000000;strokeWidth=2;entryX=1;entryY=0;entryDx=0;entryDy=0;dashed=1;" parent="lj5yNsDzuc8InLEuqnOJ-1" target="lj5yNsDzuc8InLEuqnOJ-15" edge="1">
                    <mxGeometry width="50" height="50" relative="1" as="geometry">
                        <mxPoint x="160" y="240" as="sourcePoint"/>
                        <mxPoint x="115.85786437626894" y="224.14213562373106" as="targetPoint"/>
                    </mxGeometry>
                </mxCell>
                <mxCell id="iBkLn-Y5oIjKWa4U1acs-4" value="" style="endArrow=none;html=1;strokeColor=#000000;strokeWidth=2;entryX=1;entryY=1;entryDx=0;entryDy=0;dashed=1;" parent="lj5yNsDzuc8InLEuqnOJ-1" target="lj5yNsDzuc8InLEuqnOJ-17" edge="1">
                    <mxGeometry width="50" height="50" relative="1" as="geometry">
                        <mxPoint x="440" y="180" as="sourcePoint"/>
                        <mxPoint x="124.14213562373106" y="224.14213562373106" as="targetPoint"/>
                    </mxGeometry>
                </mxCell>
                <mxCell id="iBkLn-Y5oIjKWa4U1acs-5" value="" style="endArrow=none;html=1;strokeColor=#000000;strokeWidth=2;entryX=0;entryY=1;entryDx=0;entryDy=0;dashed=1;" parent="lj5yNsDzuc8InLEuqnOJ-1" target="lj5yNsDzuc8InLEuqnOJ-17" edge="1">
                    <mxGeometry width="50" height="50" relative="1" as="geometry">
                        <mxPoint x="360" y="180" as="sourcePoint"/>
                        <mxPoint x="95.85786437626894" y="224.14213562373106" as="targetPoint"/>
                    </mxGeometry>
                </mxCell>
            </root>
        </mxGraphModel>
    </diagram>
    <diagram name="two_children_1" id="T4hNOZwwaxl48vkc142n">
        <mxGraphModel dx="1770" dy="2179" grid="1" gridSize="10" guides="1" tooltips="1" connect="1" arrows="1" fold="1" page="1" pageScale="1" pageWidth="827" pageHeight="1169" math="0" shadow="0">
            <root>
                <mxCell id="INUMBIibE78lqg2VG0Ei-0"/>
                <mxCell id="INUMBIibE78lqg2VG0Ei-1" parent="INUMBIibE78lqg2VG0Ei-0"/>
                <mxCell id="2b1KNl8HwpGsvmvddQHh-0" value="" style="rounded=0;whiteSpace=wrap;html=1;fillColor=#FFFFFF;strokeColor=none;" parent="INUMBIibE78lqg2VG0Ei-1" vertex="1">
                    <mxGeometry x="80" y="-20" width="540" height="340" as="geometry"/>
                </mxCell>
                <mxCell id="INUMBIibE78lqg2VG0Ei-2" value="&lt;font color=&quot;#000000&quot;&gt;parent&lt;/font&gt;" style="ellipse;whiteSpace=wrap;html=1;aspect=fixed;strokeColor=#006EAF;strokeWidth=2;fillColor=#1ba1e2;fontColor=#ffffff;" parent="INUMBIibE78lqg2VG0Ei-1" vertex="1">
                    <mxGeometry x="160" y="40" width="40" height="40" as="geometry"/>
                </mxCell>
                <mxCell id="INUMBIibE78lqg2VG0Ei-3" value="&lt;font color=&quot;#000000&quot;&gt;deleting&lt;/font&gt;" style="ellipse;whiteSpace=wrap;html=1;aspect=fixed;strokeColor=#FFB366;strokeWidth=2;fillColor=#1ba1e2;fontColor=#ffffff;" parent="INUMBIibE78lqg2VG0Ei-1" vertex="1">
                    <mxGeometry x="160" y="120" width="40" height="40" as="geometry"/>
                </mxCell>
                <mxCell id="INUMBIibE78lqg2VG0Ei-4" value="" style="endArrow=none;html=1;strokeColor=#000000;strokeWidth=2;exitX=0.5;exitY=1;exitDx=0;exitDy=0;entryX=0.5;entryY=0;entryDx=0;entryDy=0;" parent="INUMBIibE78lqg2VG0Ei-1" source="INUMBIibE78lqg2VG0Ei-2" target="INUMBIibE78lqg2VG0Ei-3" edge="1">
                    <mxGeometry width="50" height="50" relative="1" as="geometry">
                        <mxPoint x="185.85786437626894" y="114.14213562373106" as="sourcePoint"/>
                        <mxPoint x="154.14213562373106" y="145.85786437626894" as="targetPoint"/>
                    </mxGeometry>
                </mxCell>
                <mxCell id="INUMBIibE78lqg2VG0Ei-5" value="" style="endArrow=none;html=1;strokeColor=#000000;strokeWidth=2;entryX=1;entryY=1;entryDx=0;entryDy=0;exitX=0;exitY=1;exitDx=0;exitDy=0;" parent="INUMBIibE78lqg2VG0Ei-1" source="INUMBIibE78lqg2VG0Ei-9" target="INUMBIibE78lqg2VG0Ei-3" edge="1">
                    <mxGeometry width="50" height="50" relative="1" as="geometry">
                        <mxPoint x="134.14213562373106" y="185.85786437626894" as="sourcePoint"/>
                        <mxPoint x="204.14213562373106" y="135.85786437626894" as="targetPoint"/>
                    </mxGeometry>
                </mxCell>
                <mxCell id="INUMBIibE78lqg2VG0Ei-6" value="" style="html=1;shadow=0;dashed=0;align=center;verticalAlign=middle;shape=mxgraph.arrows2.arrow;dy=0.45;dx=30.5;notch=0;strokeColor=none;fillColor=#FF9933;" parent="INUMBIibE78lqg2VG0Ei-1" vertex="1">
                    <mxGeometry x="300" y="100" width="50" height="40" as="geometry"/>
                </mxCell>
                <mxCell id="INUMBIibE78lqg2VG0Ei-9" value="&lt;font color=&quot;#000000&quot;&gt;replacing&lt;/font&gt;" style="ellipse;whiteSpace=wrap;html=1;aspect=fixed;strokeColor=#006EAF;strokeWidth=2;fillColor=#1ba1e2;fontColor=#ffffff;direction=south;" parent="INUMBIibE78lqg2VG0Ei-1" vertex="1">
                    <mxGeometry x="220" y="180" width="40" height="40" as="geometry"/>
                </mxCell>
                <mxCell id="INUMBIibE78lqg2VG0Ei-11" value="" style="endArrow=none;html=1;strokeColor=#000000;strokeWidth=2;entryX=0;entryY=1;entryDx=0;entryDy=0;exitX=1;exitY=0;exitDx=0;exitDy=0;" parent="INUMBIibE78lqg2VG0Ei-1" target="INUMBIibE78lqg2VG0Ei-3" edge="1">
                    <mxGeometry width="50" height="50" relative="1" as="geometry">
                        <mxPoint x="134.14213562373106" y="185.85786437626894" as="sourcePoint"/>
                        <mxPoint x="185.85786437626894" y="254.14213562373106" as="targetPoint"/>
                    </mxGeometry>
                </mxCell>
                <mxCell id="INUMBIibE78lqg2VG0Ei-13" value="" style="ellipse;whiteSpace=wrap;html=1;aspect=fixed;strokeColor=#006EAF;strokeWidth=2;fillColor=#1ba1e2;fontColor=#ffffff;direction=south;" parent="INUMBIibE78lqg2VG0Ei-1" vertex="1">
                    <mxGeometry x="100" y="180" width="40" height="40" as="geometry"/>
                </mxCell>
                <mxCell id="tW98lPUl4VGbRAjVhWgx-2" value="" style="ellipse;whiteSpace=wrap;html=1;aspect=fixed;strokeColor=#006EAF;strokeWidth=2;fillColor=#1ba1e2;fontColor=#ffffff;direction=south;" parent="INUMBIibE78lqg2VG0Ei-1" vertex="1">
                    <mxGeometry x="280" y="240" width="40" height="40" as="geometry"/>
                </mxCell>
                <mxCell id="tW98lPUl4VGbRAjVhWgx-3" value="" style="endArrow=none;html=1;strokeColor=#000000;strokeWidth=2;entryX=0;entryY=1;entryDx=0;entryDy=0;exitX=1;exitY=0;exitDx=0;exitDy=0;" parent="INUMBIibE78lqg2VG0Ei-1" source="INUMBIibE78lqg2VG0Ei-9" target="tW98lPUl4VGbRAjVhWgx-2" edge="1">
                    <mxGeometry width="50" height="50" relative="1" as="geometry">
                        <mxPoint x="235.85786437626894" y="195.85786437626894" as="sourcePoint"/>
                        <mxPoint x="204.14213562373106" y="164.14213562373106" as="targetPoint"/>
                    </mxGeometry>
                </mxCell>
                <mxCell id="tW98lPUl4VGbRAjVhWgx-4" value="" style="endArrow=none;html=1;strokeColor=#000000;strokeWidth=2;entryX=0;entryY=0;entryDx=0;entryDy=0;exitX=1;exitY=1;exitDx=0;exitDy=0;dashed=1;" parent="INUMBIibE78lqg2VG0Ei-1" source="INUMBIibE78lqg2VG0Ei-13" edge="1">
                    <mxGeometry width="50" height="50" relative="1" as="geometry">
                        <mxPoint x="264.14213562373106" y="224.14213562373106" as="sourcePoint"/>
                        <mxPoint x="94.14213562373106" y="245.85786437626894" as="targetPoint"/>
                    </mxGeometry>
                </mxCell>
                <mxCell id="tW98lPUl4VGbRAjVhWgx-5" value="" style="endArrow=none;html=1;strokeColor=#000000;strokeWidth=2;entryX=0;entryY=1;entryDx=0;entryDy=0;exitX=1;exitY=0;exitDx=0;exitDy=0;dashed=1;" parent="INUMBIibE78lqg2VG0Ei-1" source="INUMBIibE78lqg2VG0Ei-13" edge="1">
                    <mxGeometry width="50" height="50" relative="1" as="geometry">
                        <mxPoint x="274.14213562373106" y="234.14213562373106" as="sourcePoint"/>
                        <mxPoint x="145.85786437626894" y="245.85786437626894" as="targetPoint"/>
                    </mxGeometry>
                </mxCell>
                <mxCell id="O1BSnCq4csZ0i8oVlTca-0" value="" style="endArrow=classic;html=1;curved=1;strokeColor=#FFB366;strokeWidth=2;dashed=1;exitX=1;exitY=1;exitDx=0;exitDy=0;entryX=0.5;entryY=1;entryDx=0;entryDy=0;edgeStyle=orthogonalEdgeStyle;" parent="INUMBIibE78lqg2VG0Ei-1" source="INUMBIibE78lqg2VG0Ei-9" target="INUMBIibE78lqg2VG0Ei-3" edge="1">
                    <mxGeometry width="50" height="50" relative="1" as="geometry">
                        <mxPoint x="211.31999999999994" y="141.68000000000006" as="sourcePoint"/>
                        <mxPoint x="260" y="80" as="targetPoint"/>
                        <Array as="points">
                            <mxPoint x="226" y="230"/>
                            <mxPoint x="180" y="230"/>
                        </Array>
                    </mxGeometry>
                </mxCell>
                <mxCell id="O1BSnCq4csZ0i8oVlTca-1" value="&lt;font color=&quot;#000000&quot;&gt;parent&lt;/font&gt;" style="ellipse;whiteSpace=wrap;html=1;aspect=fixed;strokeColor=#006EAF;strokeWidth=2;fillColor=#1ba1e2;fontColor=#ffffff;" parent="INUMBIibE78lqg2VG0Ei-1" vertex="1">
                    <mxGeometry x="480" y="40" width="40" height="40" as="geometry"/>
                </mxCell>
                <mxCell id="O1BSnCq4csZ0i8oVlTca-3" value="" style="endArrow=none;html=1;strokeColor=#000000;strokeWidth=2;exitX=0.5;exitY=1;exitDx=0;exitDy=0;entryX=0;entryY=0.5;entryDx=0;entryDy=0;" parent="INUMBIibE78lqg2VG0Ei-1" source="O1BSnCq4csZ0i8oVlTca-1" target="O1BSnCq4csZ0i8oVlTca-6" edge="1">
                    <mxGeometry width="50" height="50" relative="1" as="geometry">
                        <mxPoint x="505.85786437626894" y="114.14213562373106" as="sourcePoint"/>
                        <mxPoint x="500" y="120" as="targetPoint"/>
                    </mxGeometry>
                </mxCell>
                <mxCell id="O1BSnCq4csZ0i8oVlTca-6" value="&lt;font color=&quot;#000000&quot;&gt;replacing&lt;/font&gt;" style="ellipse;whiteSpace=wrap;html=1;aspect=fixed;strokeColor=#006EAF;strokeWidth=2;fillColor=#1ba1e2;fontColor=#ffffff;direction=south;" parent="INUMBIibE78lqg2VG0Ei-1" vertex="1">
                    <mxGeometry x="480" y="120" width="40" height="40" as="geometry"/>
                </mxCell>
                <mxCell id="O1BSnCq4csZ0i8oVlTca-7" value="" style="endArrow=none;html=1;strokeColor=#000000;strokeWidth=2;entryX=1;entryY=1;entryDx=0;entryDy=0;exitX=1;exitY=0;exitDx=0;exitDy=0;" parent="INUMBIibE78lqg2VG0Ei-1" target="O1BSnCq4csZ0i8oVlTca-6" edge="1">
                    <mxGeometry width="50" height="50" relative="1" as="geometry">
                        <mxPoint x="454.14213562373106" y="185.85786437626894" as="sourcePoint"/>
                        <mxPoint x="485.85786437626894" y="154.14213562373106" as="targetPoint"/>
                    </mxGeometry>
                </mxCell>
                <mxCell id="O1BSnCq4csZ0i8oVlTca-8" value="" style="ellipse;whiteSpace=wrap;html=1;aspect=fixed;strokeColor=#006EAF;strokeWidth=2;fillColor=#1ba1e2;fontColor=#ffffff;direction=south;" parent="INUMBIibE78lqg2VG0Ei-1" vertex="1">
                    <mxGeometry x="420" y="180" width="40" height="40" as="geometry"/>
                </mxCell>
                <mxCell id="O1BSnCq4csZ0i8oVlTca-11" value="" style="ellipse;whiteSpace=wrap;html=1;aspect=fixed;strokeColor=#006EAF;strokeWidth=2;fillColor=#1ba1e2;fontColor=#ffffff;direction=south;" parent="INUMBIibE78lqg2VG0Ei-1" vertex="1">
                    <mxGeometry x="540" y="180" width="40" height="40" as="geometry"/>
                </mxCell>
                <mxCell id="O1BSnCq4csZ0i8oVlTca-12" value="" style="endArrow=none;html=1;strokeColor=#000000;strokeWidth=2;entryX=0;entryY=1;entryDx=0;entryDy=0;exitX=1;exitY=0;exitDx=0;exitDy=0;" parent="INUMBIibE78lqg2VG0Ei-1" source="O1BSnCq4csZ0i8oVlTca-6" target="O1BSnCq4csZ0i8oVlTca-11" edge="1">
                    <mxGeometry width="50" height="50" relative="1" as="geometry">
                        <mxPoint x="555.8578643762689" y="195.85786437626894" as="sourcePoint"/>
                        <mxPoint x="524.1421356237311" y="164.14213562373106" as="targetPoint"/>
                    </mxGeometry>
                </mxCell>
                <mxCell id="O1BSnCq4csZ0i8oVlTca-13" value="" style="endArrow=none;html=1;strokeColor=#000000;strokeWidth=2;entryX=0;entryY=0;entryDx=0;entryDy=0;exitX=1;exitY=1;exitDx=0;exitDy=0;dashed=1;" parent="INUMBIibE78lqg2VG0Ei-1" source="O1BSnCq4csZ0i8oVlTca-8" edge="1">
                    <mxGeometry width="50" height="50" relative="1" as="geometry">
                        <mxPoint x="584.1421356237311" y="224.14213562373106" as="sourcePoint"/>
                        <mxPoint x="414.14213562373106" y="245.85786437626894" as="targetPoint"/>
                    </mxGeometry>
                </mxCell>
                <mxCell id="O1BSnCq4csZ0i8oVlTca-14" value="" style="endArrow=none;html=1;strokeColor=#000000;strokeWidth=2;entryX=0;entryY=1;entryDx=0;entryDy=0;exitX=1;exitY=0;exitDx=0;exitDy=0;dashed=1;" parent="INUMBIibE78lqg2VG0Ei-1" source="O1BSnCq4csZ0i8oVlTca-8" edge="1">
                    <mxGeometry width="50" height="50" relative="1" as="geometry">
                        <mxPoint x="594.1421356237311" y="234.14213562373106" as="sourcePoint"/>
                        <mxPoint x="465.85786437626894" y="245.85786437626894" as="targetPoint"/>
                    </mxGeometry>
                </mxCell>
                <mxCell id="lxZhdMPEdiEvj0YSKvG--2" value="" style="endArrow=none;html=1;strokeColor=#000000;strokeWidth=2;exitX=1;exitY=0;exitDx=0;exitDy=0;dashed=1;" parent="INUMBIibE78lqg2VG0Ei-1" source="tW98lPUl4VGbRAjVhWgx-2" edge="1">
                    <mxGeometry width="50" height="50" relative="1" as="geometry">
                        <mxPoint x="144.14213562373106" y="224.14213562373106" as="sourcePoint"/>
                        <mxPoint x="340" y="300" as="targetPoint"/>
                    </mxGeometry>
                </mxCell>
                <mxCell id="lxZhdMPEdiEvj0YSKvG--3" value="" style="endArrow=none;html=1;strokeColor=#000000;strokeWidth=2;exitX=1;exitY=1;exitDx=0;exitDy=0;dashed=1;" parent="INUMBIibE78lqg2VG0Ei-1" source="tW98lPUl4VGbRAjVhWgx-2" edge="1">
                    <mxGeometry width="50" height="50" relative="1" as="geometry">
                        <mxPoint x="324.14213562373106" y="284.14213562373106" as="sourcePoint"/>
                        <mxPoint x="260" y="300" as="targetPoint"/>
                    </mxGeometry>
                </mxCell>
                <mxCell id="lxZhdMPEdiEvj0YSKvG--4" value="" style="endArrow=none;html=1;strokeColor=#000000;strokeWidth=2;exitX=1;exitY=0;exitDx=0;exitDy=0;dashed=1;" parent="INUMBIibE78lqg2VG0Ei-1" source="O1BSnCq4csZ0i8oVlTca-11" edge="1">
                    <mxGeometry width="50" height="50" relative="1" as="geometry">
                        <mxPoint x="334.14213562373106" y="294.14213562373106" as="sourcePoint"/>
                        <mxPoint x="600" y="240" as="targetPoint"/>
                    </mxGeometry>
                </mxCell>
                <mxCell id="lxZhdMPEdiEvj0YSKvG--5" value="" style="endArrow=none;html=1;strokeColor=#000000;strokeWidth=2;exitX=1;exitY=1;exitDx=0;exitDy=0;dashed=1;" parent="INUMBIibE78lqg2VG0Ei-1" source="O1BSnCq4csZ0i8oVlTca-11" edge="1">
                    <mxGeometry width="50" height="50" relative="1" as="geometry">
                        <mxPoint x="344.14213562373106" y="304.14213562373106" as="sourcePoint"/>
                        <mxPoint x="520" y="240" as="targetPoint"/>
                    </mxGeometry>
                </mxCell>
                <mxCell id="Bd2uAS8ascW9yBr7l67A-0" value="" style="endArrow=classic;html=1;dashed=1;strokeColor=#FFB366;strokeWidth=2;" edge="1" parent="INUMBIibE78lqg2VG0Ei-1">
                    <mxGeometry width="50" height="50" relative="1" as="geometry">
                        <mxPoint x="450" y="9.5" as="sourcePoint"/>
                        <mxPoint x="500" y="9.5" as="targetPoint"/>
                    </mxGeometry>
                </mxCell>
                <mxCell id="Bd2uAS8ascW9yBr7l67A-1" value="&lt;font color=&quot;#000000&quot; style=&quot;font-size: 14px&quot;&gt;&lt;b&gt;left thread&lt;/b&gt;&lt;/font&gt;" style="text;html=1;strokeColor=none;fillColor=none;align=center;verticalAlign=middle;whiteSpace=wrap;rounded=0;" vertex="1" parent="INUMBIibE78lqg2VG0Ei-1">
                    <mxGeometry x="500" width="90" height="20" as="geometry"/>
                </mxCell>
            </root>
        </mxGraphModel>
    </diagram>
    <diagram name="two_children_2" id="59NTOwrulGPqqVqYM4Gm">
        <mxGraphModel dx="1770" dy="2179" grid="1" gridSize="10" guides="1" tooltips="1" connect="1" arrows="1" fold="1" page="1" pageScale="1" pageWidth="827" pageHeight="1169" math="0" shadow="0">
            <root>
                <mxCell id="sQ6tridFzlUKtPEMu8lY-0"/>
                <mxCell id="sQ6tridFzlUKtPEMu8lY-1" parent="sQ6tridFzlUKtPEMu8lY-0"/>
                <mxCell id="D86XRKolQJNvqgxke2Pm-0" value="" style="rounded=0;whiteSpace=wrap;html=1;fillColor=#FFFFFF;strokeColor=none;" parent="sQ6tridFzlUKtPEMu8lY-1" vertex="1">
                    <mxGeometry x="20" y="-20" width="520" height="1080" as="geometry"/>
                </mxCell>
                <mxCell id="sQ6tridFzlUKtPEMu8lY-2" value="&lt;font color=&quot;#000000&quot;&gt;parent&lt;/font&gt;" style="ellipse;whiteSpace=wrap;html=1;aspect=fixed;strokeColor=#006EAF;strokeWidth=2;fillColor=#1ba1e2;fontColor=#ffffff;" parent="sQ6tridFzlUKtPEMu8lY-1" vertex="1">
                    <mxGeometry x="240" y="40" width="40" height="40" as="geometry"/>
                </mxCell>
                <mxCell id="sQ6tridFzlUKtPEMu8lY-3" value="&lt;font color=&quot;#000000&quot;&gt;deleting&lt;/font&gt;" style="ellipse;whiteSpace=wrap;html=1;aspect=fixed;strokeColor=#FFB366;strokeWidth=2;fillColor=#1ba1e2;fontColor=#ffffff;" parent="sQ6tridFzlUKtPEMu8lY-1" vertex="1">
                    <mxGeometry x="240" y="120" width="40" height="40" as="geometry"/>
                </mxCell>
                <mxCell id="sQ6tridFzlUKtPEMu8lY-4" value="" style="endArrow=none;html=1;strokeColor=#000000;strokeWidth=2;exitX=0.5;exitY=1;exitDx=0;exitDy=0;entryX=0.5;entryY=0;entryDx=0;entryDy=0;" parent="sQ6tridFzlUKtPEMu8lY-1" source="sQ6tridFzlUKtPEMu8lY-2" target="sQ6tridFzlUKtPEMu8lY-3" edge="1">
                    <mxGeometry width="50" height="50" relative="1" as="geometry">
                        <mxPoint x="185.85786437626894" y="114.14213562373106" as="sourcePoint"/>
                        <mxPoint x="154.14213562373106" y="145.85786437626894" as="targetPoint"/>
                    </mxGeometry>
                </mxCell>
                <mxCell id="sQ6tridFzlUKtPEMu8lY-5" value="" style="endArrow=none;html=1;strokeColor=#000000;strokeWidth=2;entryX=1;entryY=1;entryDx=0;entryDy=0;exitX=0;exitY=1;exitDx=0;exitDy=0;" parent="sQ6tridFzlUKtPEMu8lY-1" source="sQ6tridFzlUKtPEMu8lY-7" target="sQ6tridFzlUKtPEMu8lY-3" edge="1">
                    <mxGeometry width="50" height="50" relative="1" as="geometry">
                        <mxPoint x="134.14213562373106" y="185.85786437626894" as="sourcePoint"/>
                        <mxPoint x="204.14213562373106" y="135.85786437626894" as="targetPoint"/>
                    </mxGeometry>
                </mxCell>
                <mxCell id="sQ6tridFzlUKtPEMu8lY-6" value="" style="html=1;shadow=0;dashed=0;align=center;verticalAlign=middle;shape=mxgraph.arrows2.arrow;dy=0.45;dx=30.5;notch=0;strokeColor=none;fillColor=#FF9933;rotation=90;" parent="sQ6tridFzlUKtPEMu8lY-1" vertex="1">
                    <mxGeometry x="235" y="370" width="50" height="40" as="geometry"/>
                </mxCell>
                <mxCell id="sQ6tridFzlUKtPEMu8lY-7" value="" style="ellipse;whiteSpace=wrap;html=1;aspect=fixed;strokeColor=#006EAF;strokeWidth=2;fillColor=#1ba1e2;fontColor=#ffffff;direction=south;" parent="sQ6tridFzlUKtPEMu8lY-1" vertex="1">
                    <mxGeometry x="380" y="180" width="40" height="40" as="geometry"/>
                </mxCell>
                <mxCell id="sQ6tridFzlUKtPEMu8lY-8" value="" style="endArrow=none;html=1;strokeColor=#000000;strokeWidth=2;entryX=0;entryY=1;entryDx=0;entryDy=0;exitX=1;exitY=0;exitDx=0;exitDy=0;" parent="sQ6tridFzlUKtPEMu8lY-1" target="sQ6tridFzlUKtPEMu8lY-3" edge="1">
                    <mxGeometry width="50" height="50" relative="1" as="geometry">
                        <mxPoint x="134.14213562373106" y="185.85786437626894" as="sourcePoint"/>
                        <mxPoint x="185.85786437626894" y="254.14213562373106" as="targetPoint"/>
                    </mxGeometry>
                </mxCell>
                <mxCell id="sQ6tridFzlUKtPEMu8lY-9" value="" style="ellipse;whiteSpace=wrap;html=1;aspect=fixed;strokeColor=#006EAF;strokeWidth=2;fillColor=#1ba1e2;fontColor=#ffffff;direction=south;" parent="sQ6tridFzlUKtPEMu8lY-1" vertex="1">
                    <mxGeometry x="100" y="180" width="40" height="40" as="geometry"/>
                </mxCell>
                <mxCell id="sQ6tridFzlUKtPEMu8lY-10" value="" style="ellipse;whiteSpace=wrap;html=1;aspect=fixed;strokeColor=#006EAF;strokeWidth=2;fillColor=#1ba1e2;fontColor=#ffffff;direction=south;" parent="sQ6tridFzlUKtPEMu8lY-1" vertex="1">
                    <mxGeometry x="40" y="240" width="40" height="40" as="geometry"/>
                </mxCell>
                <mxCell id="sQ6tridFzlUKtPEMu8lY-11" value="" style="ellipse;whiteSpace=wrap;html=1;aspect=fixed;strokeColor=#006EAF;strokeWidth=2;fillColor=#1ba1e2;fontColor=#ffffff;direction=south;" parent="sQ6tridFzlUKtPEMu8lY-1" vertex="1">
                    <mxGeometry x="160" y="240" width="40" height="40" as="geometry"/>
                </mxCell>
                <mxCell id="sQ6tridFzlUKtPEMu8lY-12" value="" style="ellipse;whiteSpace=wrap;html=1;aspect=fixed;strokeColor=#006EAF;strokeWidth=2;fillColor=#1ba1e2;fontColor=#ffffff;direction=south;" parent="sQ6tridFzlUKtPEMu8lY-1" vertex="1">
                    <mxGeometry x="440" y="240" width="40" height="40" as="geometry"/>
                </mxCell>
                <mxCell id="sQ6tridFzlUKtPEMu8lY-13" value="" style="endArrow=none;html=1;strokeColor=#000000;strokeWidth=2;entryX=0;entryY=1;entryDx=0;entryDy=0;exitX=1;exitY=0;exitDx=0;exitDy=0;" parent="sQ6tridFzlUKtPEMu8lY-1" source="sQ6tridFzlUKtPEMu8lY-7" target="sQ6tridFzlUKtPEMu8lY-12" edge="1">
                    <mxGeometry width="50" height="50" relative="1" as="geometry">
                        <mxPoint x="235.85786437626894" y="195.85786437626894" as="sourcePoint"/>
                        <mxPoint x="204.14213562373106" y="164.14213562373106" as="targetPoint"/>
                    </mxGeometry>
                </mxCell>
                <mxCell id="sQ6tridFzlUKtPEMu8lY-14" value="" style="endArrow=none;html=1;strokeColor=#000000;strokeWidth=2;entryX=0;entryY=0;entryDx=0;entryDy=0;exitX=1;exitY=1;exitDx=0;exitDy=0;" parent="sQ6tridFzlUKtPEMu8lY-1" source="sQ6tridFzlUKtPEMu8lY-9" target="sQ6tridFzlUKtPEMu8lY-10" edge="1">
                    <mxGeometry width="50" height="50" relative="1" as="geometry">
                        <mxPoint x="264.14213562373106" y="224.14213562373106" as="sourcePoint"/>
                        <mxPoint x="295.85786437626894" y="255.85786437626894" as="targetPoint"/>
                    </mxGeometry>
                </mxCell>
                <mxCell id="sQ6tridFzlUKtPEMu8lY-15" value="" style="endArrow=none;html=1;strokeColor=#000000;strokeWidth=2;entryX=0;entryY=1;entryDx=0;entryDy=0;exitX=1;exitY=0;exitDx=0;exitDy=0;" parent="sQ6tridFzlUKtPEMu8lY-1" source="sQ6tridFzlUKtPEMu8lY-9" target="sQ6tridFzlUKtPEMu8lY-11" edge="1">
                    <mxGeometry width="50" height="50" relative="1" as="geometry">
                        <mxPoint x="274.14213562373106" y="234.14213562373106" as="sourcePoint"/>
                        <mxPoint x="305.85786437626894" y="265.85786437626894" as="targetPoint"/>
                    </mxGeometry>
                </mxCell>
                <mxCell id="sQ6tridFzlUKtPEMu8lY-29" value="&lt;font color=&quot;#000000&quot;&gt;replacing&lt;/font&gt;" style="ellipse;whiteSpace=wrap;html=1;aspect=fixed;strokeColor=#006EAF;strokeWidth=2;fillColor=#1ba1e2;fontColor=#ffffff;direction=south;" parent="sQ6tridFzlUKtPEMu8lY-1" vertex="1">
                    <mxGeometry x="320" y="240" width="40" height="40" as="geometry"/>
                </mxCell>
                <mxCell id="sQ6tridFzlUKtPEMu8lY-31" value="" style="endArrow=none;html=1;strokeColor=#000000;strokeWidth=2;entryX=0;entryY=0;entryDx=0;entryDy=0;exitX=1;exitY=1;exitDx=0;exitDy=0;" parent="sQ6tridFzlUKtPEMu8lY-1" source="sQ6tridFzlUKtPEMu8lY-7" target="sQ6tridFzlUKtPEMu8lY-29" edge="1">
                    <mxGeometry width="50" height="50" relative="1" as="geometry">
                        <mxPoint x="424.14213562373106" y="224.14213562373106" as="sourcePoint"/>
                        <mxPoint x="455.85786437626894" y="255.85786437626894" as="targetPoint"/>
                    </mxGeometry>
                </mxCell>
                <mxCell id="ziCMf1jrIJMO1rc83fvu-0" value="&lt;font color=&quot;#000000&quot;&gt;None&lt;/font&gt;" style="ellipse;whiteSpace=wrap;html=1;aspect=fixed;strokeColor=#006EAF;strokeWidth=2;fillColor=none;fontColor=#ffffff;dashed=1;" parent="sQ6tridFzlUKtPEMu8lY-1" vertex="1">
                    <mxGeometry x="360" y="300" width="40" height="40" as="geometry"/>
                </mxCell>
                <mxCell id="FaTsfREjC9cuFgCuOjqk-1" value="" style="endArrow=none;html=1;strokeColor=#000000;strokeWidth=2;entryX=0;entryY=0;entryDx=0;entryDy=0;exitX=1;exitY=0;exitDx=0;exitDy=0;" parent="sQ6tridFzlUKtPEMu8lY-1" source="sQ6tridFzlUKtPEMu8lY-29" target="ziCMf1jrIJMO1rc83fvu-0" edge="1">
                    <mxGeometry width="50" height="50" relative="1" as="geometry">
                        <mxPoint x="395.85786437626894" y="224.14213562373106" as="sourcePoint"/>
                        <mxPoint x="364.14213562373106" y="255.85786437626894" as="targetPoint"/>
                    </mxGeometry>
                </mxCell>
                <mxCell id="FaTsfREjC9cuFgCuOjqk-2" value="&lt;font color=&quot;#000000&quot;&gt;parent&lt;/font&gt;" style="ellipse;whiteSpace=wrap;html=1;aspect=fixed;strokeColor=#006EAF;strokeWidth=2;fillColor=#1ba1e2;fontColor=#ffffff;" parent="sQ6tridFzlUKtPEMu8lY-1" vertex="1">
                    <mxGeometry x="240" y="440" width="40" height="40" as="geometry"/>
                </mxCell>
                <mxCell id="FaTsfREjC9cuFgCuOjqk-3" value="&lt;font color=&quot;#000000&quot;&gt;deleting&lt;/font&gt;" style="ellipse;whiteSpace=wrap;html=1;aspect=fixed;strokeColor=#FFB366;strokeWidth=2;fillColor=#1ba1e2;fontColor=#ffffff;" parent="sQ6tridFzlUKtPEMu8lY-1" vertex="1">
                    <mxGeometry x="240" y="520" width="40" height="40" as="geometry"/>
                </mxCell>
                <mxCell id="FaTsfREjC9cuFgCuOjqk-4" value="" style="endArrow=none;html=1;strokeColor=#000000;strokeWidth=2;exitX=0.5;exitY=1;exitDx=0;exitDy=0;entryX=0.5;entryY=0;entryDx=0;entryDy=0;" parent="sQ6tridFzlUKtPEMu8lY-1" source="FaTsfREjC9cuFgCuOjqk-2" target="FaTsfREjC9cuFgCuOjqk-3" edge="1">
                    <mxGeometry width="50" height="50" relative="1" as="geometry">
                        <mxPoint x="185.85786437626894" y="514.1421356237311" as="sourcePoint"/>
                        <mxPoint x="154.14213562373106" y="545.8578643762689" as="targetPoint"/>
                    </mxGeometry>
                </mxCell>
                <mxCell id="FaTsfREjC9cuFgCuOjqk-6" value="" style="ellipse;whiteSpace=wrap;html=1;aspect=fixed;strokeColor=#006EAF;strokeWidth=2;fillColor=#1ba1e2;fontColor=#ffffff;direction=south;" parent="sQ6tridFzlUKtPEMu8lY-1" vertex="1">
                    <mxGeometry x="420" y="580" width="40" height="40" as="geometry"/>
                </mxCell>
                <mxCell id="FaTsfREjC9cuFgCuOjqk-7" value="" style="endArrow=none;html=1;strokeColor=#000000;strokeWidth=2;entryX=0;entryY=1;entryDx=0;entryDy=0;exitX=1;exitY=0;exitDx=0;exitDy=0;" parent="sQ6tridFzlUKtPEMu8lY-1" target="FaTsfREjC9cuFgCuOjqk-3" edge="1">
                    <mxGeometry width="50" height="50" relative="1" as="geometry">
                        <mxPoint x="134.14213562373106" y="585.8578643762689" as="sourcePoint"/>
                        <mxPoint x="185.85786437626894" y="654.1421356237311" as="targetPoint"/>
                    </mxGeometry>
                </mxCell>
                <mxCell id="FaTsfREjC9cuFgCuOjqk-8" value="" style="ellipse;whiteSpace=wrap;html=1;aspect=fixed;strokeColor=#006EAF;strokeWidth=2;fillColor=#1ba1e2;fontColor=#ffffff;direction=south;" parent="sQ6tridFzlUKtPEMu8lY-1" vertex="1">
                    <mxGeometry x="100" y="580" width="40" height="40" as="geometry"/>
                </mxCell>
                <mxCell id="FaTsfREjC9cuFgCuOjqk-9" value="" style="ellipse;whiteSpace=wrap;html=1;aspect=fixed;strokeColor=#006EAF;strokeWidth=2;fillColor=#1ba1e2;fontColor=#ffffff;direction=south;" parent="sQ6tridFzlUKtPEMu8lY-1" vertex="1">
                    <mxGeometry x="40" y="640" width="40" height="40" as="geometry"/>
                </mxCell>
                <mxCell id="FaTsfREjC9cuFgCuOjqk-10" value="" style="ellipse;whiteSpace=wrap;html=1;aspect=fixed;strokeColor=#006EAF;strokeWidth=2;fillColor=#1ba1e2;fontColor=#ffffff;direction=south;" parent="sQ6tridFzlUKtPEMu8lY-1" vertex="1">
                    <mxGeometry x="160" y="640" width="40" height="40" as="geometry"/>
                </mxCell>
                <mxCell id="FaTsfREjC9cuFgCuOjqk-11" value="" style="ellipse;whiteSpace=wrap;html=1;aspect=fixed;strokeColor=#006EAF;strokeWidth=2;fillColor=#1ba1e2;fontColor=#ffffff;direction=south;" parent="sQ6tridFzlUKtPEMu8lY-1" vertex="1">
                    <mxGeometry x="480" y="640" width="40" height="40" as="geometry"/>
                </mxCell>
                <mxCell id="FaTsfREjC9cuFgCuOjqk-12" value="" style="endArrow=none;html=1;strokeColor=#000000;strokeWidth=2;entryX=0;entryY=1;entryDx=0;entryDy=0;exitX=1;exitY=0;exitDx=0;exitDy=0;" parent="sQ6tridFzlUKtPEMu8lY-1" source="FaTsfREjC9cuFgCuOjqk-6" target="FaTsfREjC9cuFgCuOjqk-11" edge="1">
                    <mxGeometry width="50" height="50" relative="1" as="geometry">
                        <mxPoint x="275.85786437626894" y="595.8578643762689" as="sourcePoint"/>
                        <mxPoint x="244.14213562373106" y="564.1421356237311" as="targetPoint"/>
                    </mxGeometry>
                </mxCell>
                <mxCell id="FaTsfREjC9cuFgCuOjqk-13" value="" style="endArrow=none;html=1;strokeColor=#000000;strokeWidth=2;entryX=0;entryY=0;entryDx=0;entryDy=0;exitX=1;exitY=1;exitDx=0;exitDy=0;" parent="sQ6tridFzlUKtPEMu8lY-1" source="FaTsfREjC9cuFgCuOjqk-8" target="FaTsfREjC9cuFgCuOjqk-9" edge="1">
                    <mxGeometry width="50" height="50" relative="1" as="geometry">
                        <mxPoint x="264.14213562373106" y="624.1421356237311" as="sourcePoint"/>
                        <mxPoint x="295.85786437626894" y="655.8578643762689" as="targetPoint"/>
                    </mxGeometry>
                </mxCell>
                <mxCell id="FaTsfREjC9cuFgCuOjqk-14" value="" style="endArrow=none;html=1;strokeColor=#000000;strokeWidth=2;entryX=0;entryY=1;entryDx=0;entryDy=0;exitX=1;exitY=0;exitDx=0;exitDy=0;" parent="sQ6tridFzlUKtPEMu8lY-1" source="FaTsfREjC9cuFgCuOjqk-8" target="FaTsfREjC9cuFgCuOjqk-10" edge="1">
                    <mxGeometry width="50" height="50" relative="1" as="geometry">
                        <mxPoint x="274.14213562373106" y="634.1421356237311" as="sourcePoint"/>
                        <mxPoint x="305.85786437626894" y="665.8578643762689" as="targetPoint"/>
                    </mxGeometry>
                </mxCell>
                <mxCell id="FaTsfREjC9cuFgCuOjqk-16" value="&lt;font color=&quot;#000000&quot;&gt;replacing&lt;/font&gt;" style="ellipse;whiteSpace=wrap;html=1;aspect=fixed;strokeColor=#006EAF;strokeWidth=2;fillColor=#1ba1e2;fontColor=#ffffff;direction=south;" parent="sQ6tridFzlUKtPEMu8lY-1" vertex="1">
                    <mxGeometry x="360" y="520" width="40" height="40" as="geometry"/>
                </mxCell>
                <mxCell id="FaTsfREjC9cuFgCuOjqk-17" value="" style="endArrow=none;html=1;strokeColor=#000000;strokeWidth=2;entryX=1;entryY=0;entryDx=0;entryDy=0;exitX=0;exitY=1;exitDx=0;exitDy=0;" parent="sQ6tridFzlUKtPEMu8lY-1" source="FaTsfREjC9cuFgCuOjqk-6" target="FaTsfREjC9cuFgCuOjqk-16" edge="1">
                    <mxGeometry width="50" height="50" relative="1" as="geometry">
                        <mxPoint x="464.14213562373106" y="624.1421356237311" as="sourcePoint"/>
                        <mxPoint x="495.85786437626894" y="655.8578643762689" as="targetPoint"/>
                    </mxGeometry>
                </mxCell>
                <mxCell id="rwiqCNLo5Zk6dfmjTi6c-21" value="" style="html=1;shadow=0;dashed=0;align=center;verticalAlign=middle;shape=mxgraph.arrows2.arrow;dy=0.45;dx=30.5;notch=0;strokeColor=none;fillColor=#FF9933;rotation=90;" parent="sQ6tridFzlUKtPEMu8lY-1" vertex="1">
                    <mxGeometry x="235" y="730" width="50" height="40" as="geometry"/>
                </mxCell>
                <mxCell id="rwiqCNLo5Zk6dfmjTi6c-22" value="&lt;font color=&quot;#000000&quot;&gt;parent&lt;/font&gt;" style="ellipse;whiteSpace=wrap;html=1;aspect=fixed;strokeColor=#006EAF;strokeWidth=2;fillColor=#1ba1e2;fontColor=#ffffff;" parent="sQ6tridFzlUKtPEMu8lY-1" vertex="1">
                    <mxGeometry x="240" y="800" width="40" height="40" as="geometry"/>
                </mxCell>
                <mxCell id="rwiqCNLo5Zk6dfmjTi6c-24" value="" style="endArrow=none;html=1;strokeColor=#000000;strokeWidth=2;exitX=0.5;exitY=1;exitDx=0;exitDy=0;entryX=0;entryY=0.5;entryDx=0;entryDy=0;" parent="sQ6tridFzlUKtPEMu8lY-1" source="rwiqCNLo5Zk6dfmjTi6c-22" target="rwiqCNLo5Zk6dfmjTi6c-35" edge="1">
                    <mxGeometry width="50" height="50" relative="1" as="geometry">
                        <mxPoint x="185.85786437626894" y="904.1421356237311" as="sourcePoint"/>
                        <mxPoint x="260" y="910" as="targetPoint"/>
                    </mxGeometry>
                </mxCell>
                <mxCell id="rwiqCNLo5Zk6dfmjTi6c-25" value="" style="ellipse;whiteSpace=wrap;html=1;aspect=fixed;strokeColor=#006EAF;strokeWidth=2;fillColor=#1ba1e2;fontColor=#ffffff;direction=south;" parent="sQ6tridFzlUKtPEMu8lY-1" vertex="1">
                    <mxGeometry x="320" y="940" width="40" height="40" as="geometry"/>
                </mxCell>
                <mxCell id="rwiqCNLo5Zk6dfmjTi6c-26" value="" style="endArrow=none;html=1;strokeColor=#000000;strokeWidth=2;entryX=1;entryY=1;entryDx=0;entryDy=0;" parent="sQ6tridFzlUKtPEMu8lY-1" target="rwiqCNLo5Zk6dfmjTi6c-35" edge="1">
                    <mxGeometry width="50" height="50" relative="1" as="geometry">
                        <mxPoint x="190" y="950" as="sourcePoint"/>
                        <mxPoint x="245.85786437626894" y="944.1421356237311" as="targetPoint"/>
                    </mxGeometry>
                </mxCell>
                <mxCell id="rwiqCNLo5Zk6dfmjTi6c-27" value="" style="ellipse;whiteSpace=wrap;html=1;aspect=fixed;strokeColor=#006EAF;strokeWidth=2;fillColor=#1ba1e2;fontColor=#ffffff;direction=south;" parent="sQ6tridFzlUKtPEMu8lY-1" vertex="1">
                    <mxGeometry x="160" y="940" width="40" height="40" as="geometry"/>
                </mxCell>
                <mxCell id="rwiqCNLo5Zk6dfmjTi6c-28" value="" style="ellipse;whiteSpace=wrap;html=1;aspect=fixed;strokeColor=#006EAF;strokeWidth=2;fillColor=#1ba1e2;fontColor=#ffffff;direction=south;" parent="sQ6tridFzlUKtPEMu8lY-1" vertex="1">
                    <mxGeometry x="100" y="1000" width="40" height="40" as="geometry"/>
                </mxCell>
                <mxCell id="rwiqCNLo5Zk6dfmjTi6c-29" value="" style="ellipse;whiteSpace=wrap;html=1;aspect=fixed;strokeColor=#006EAF;strokeWidth=2;fillColor=#1ba1e2;fontColor=#ffffff;direction=south;" parent="sQ6tridFzlUKtPEMu8lY-1" vertex="1">
                    <mxGeometry x="220" y="1000" width="40" height="40" as="geometry"/>
                </mxCell>
                <mxCell id="rwiqCNLo5Zk6dfmjTi6c-30" value="" style="ellipse;whiteSpace=wrap;html=1;aspect=fixed;strokeColor=#006EAF;strokeWidth=2;fillColor=#1ba1e2;fontColor=#ffffff;direction=south;" parent="sQ6tridFzlUKtPEMu8lY-1" vertex="1">
                    <mxGeometry x="380" y="1000" width="40" height="40" as="geometry"/>
                </mxCell>
                <mxCell id="rwiqCNLo5Zk6dfmjTi6c-31" value="" style="endArrow=none;html=1;strokeColor=#000000;strokeWidth=2;entryX=0;entryY=1;entryDx=0;entryDy=0;exitX=1;exitY=0;exitDx=0;exitDy=0;" parent="sQ6tridFzlUKtPEMu8lY-1" source="rwiqCNLo5Zk6dfmjTi6c-25" target="rwiqCNLo5Zk6dfmjTi6c-30" edge="1">
                    <mxGeometry width="50" height="50" relative="1" as="geometry">
                        <mxPoint x="275.85786437626894" y="985.8578643762689" as="sourcePoint"/>
                        <mxPoint x="244.14213562373106" y="954.1421356237311" as="targetPoint"/>
                    </mxGeometry>
                </mxCell>
                <mxCell id="rwiqCNLo5Zk6dfmjTi6c-32" value="" style="endArrow=none;html=1;strokeColor=#000000;strokeWidth=2;entryX=0;entryY=0;entryDx=0;entryDy=0;exitX=1;exitY=1;exitDx=0;exitDy=0;" parent="sQ6tridFzlUKtPEMu8lY-1" source="rwiqCNLo5Zk6dfmjTi6c-27" target="rwiqCNLo5Zk6dfmjTi6c-28" edge="1">
                    <mxGeometry width="50" height="50" relative="1" as="geometry">
                        <mxPoint x="264.14213562373106" y="1014.1421356237311" as="sourcePoint"/>
                        <mxPoint x="295.85786437626894" y="1045.857864376269" as="targetPoint"/>
                    </mxGeometry>
                </mxCell>
                <mxCell id="rwiqCNLo5Zk6dfmjTi6c-33" value="" style="endArrow=none;html=1;strokeColor=#000000;strokeWidth=2;entryX=0;entryY=1;entryDx=0;entryDy=0;exitX=1;exitY=0;exitDx=0;exitDy=0;" parent="sQ6tridFzlUKtPEMu8lY-1" source="rwiqCNLo5Zk6dfmjTi6c-27" target="rwiqCNLo5Zk6dfmjTi6c-29" edge="1">
                    <mxGeometry width="50" height="50" relative="1" as="geometry">
                        <mxPoint x="274.14213562373106" y="1024.142135623731" as="sourcePoint"/>
                        <mxPoint x="305.85786437626894" y="1055.857864376269" as="targetPoint"/>
                    </mxGeometry>
                </mxCell>
                <mxCell id="rwiqCNLo5Zk6dfmjTi6c-35" value="&lt;font color=&quot;#000000&quot;&gt;replacing&lt;/font&gt;" style="ellipse;whiteSpace=wrap;html=1;aspect=fixed;strokeColor=#006EAF;strokeWidth=2;fillColor=#1ba1e2;fontColor=#ffffff;direction=south;" parent="sQ6tridFzlUKtPEMu8lY-1" vertex="1">
                    <mxGeometry x="240" y="880" width="40" height="40" as="geometry"/>
                </mxCell>
                <mxCell id="rwiqCNLo5Zk6dfmjTi6c-36" value="" style="endArrow=none;html=1;strokeColor=#000000;strokeWidth=2;entryX=1;entryY=0;entryDx=0;entryDy=0;exitX=0;exitY=1;exitDx=0;exitDy=0;" parent="sQ6tridFzlUKtPEMu8lY-1" source="rwiqCNLo5Zk6dfmjTi6c-25" target="rwiqCNLo5Zk6dfmjTi6c-35" edge="1">
                    <mxGeometry width="50" height="50" relative="1" as="geometry">
                        <mxPoint x="464.14213562373106" y="1014.1421356237311" as="sourcePoint"/>
                        <mxPoint x="495.85786437626894" y="1045.857864376269" as="targetPoint"/>
                    </mxGeometry>
                </mxCell>
                <mxCell id="jZYay55Md-3ss4CCptsb-0" value="" style="endArrow=classic;html=1;curved=1;strokeColor=#FFB366;strokeWidth=2;dashed=1;entryX=0.5;entryY=1;entryDx=0;entryDy=0;edgeStyle=orthogonalEdgeStyle;exitX=1;exitY=1;exitDx=0;exitDy=0;" parent="sQ6tridFzlUKtPEMu8lY-1" source="sQ6tridFzlUKtPEMu8lY-29" target="sQ6tridFzlUKtPEMu8lY-3" edge="1">
                    <mxGeometry width="50" height="50" relative="1" as="geometry">
                        <mxPoint x="445.85786437626894" y="374.14213562373106" as="sourcePoint"/>
                        <mxPoint x="400" y="340" as="targetPoint"/>
                        <Array as="points">
                            <mxPoint x="326" y="290"/>
                            <mxPoint x="260" y="290"/>
                        </Array>
                    </mxGeometry>
                </mxCell>
                <mxCell id="jZYay55Md-3ss4CCptsb-1" value="" style="endArrow=classic;html=1;curved=1;strokeColor=#FFB366;strokeWidth=2;dashed=1;entryX=0.5;entryY=1;entryDx=0;entryDy=0;edgeStyle=orthogonalEdgeStyle;exitX=1;exitY=1;exitDx=0;exitDy=0;" parent="sQ6tridFzlUKtPEMu8lY-1" source="FaTsfREjC9cuFgCuOjqk-16" target="FaTsfREjC9cuFgCuOjqk-3" edge="1">
                    <mxGeometry width="50" height="50" relative="1" as="geometry">
                        <mxPoint x="335.85786437626894" y="284.14213562373106" as="sourcePoint"/>
                        <mxPoint x="270" y="170" as="targetPoint"/>
                        <Array as="points">
                            <mxPoint x="366" y="620"/>
                            <mxPoint x="260" y="620"/>
                        </Array>
                    </mxGeometry>
                </mxCell>
                <mxCell id="lRmFTVw8mtoqvl6Jk8My-0" value="" style="endArrow=classic;html=1;dashed=1;strokeColor=#FFB366;strokeWidth=2;" edge="1" parent="sQ6tridFzlUKtPEMu8lY-1">
                    <mxGeometry width="50" height="50" relative="1" as="geometry">
                        <mxPoint x="370" y="9.5" as="sourcePoint"/>
                        <mxPoint x="420" y="9.5" as="targetPoint"/>
                    </mxGeometry>
                </mxCell>
                <mxCell id="lRmFTVw8mtoqvl6Jk8My-1" value="&lt;font color=&quot;#000000&quot; style=&quot;font-size: 14px&quot;&gt;&lt;b&gt;left thread&lt;/b&gt;&lt;/font&gt;" style="text;html=1;strokeColor=none;fillColor=none;align=center;verticalAlign=middle;whiteSpace=wrap;rounded=0;" vertex="1" parent="sQ6tridFzlUKtPEMu8lY-1">
                    <mxGeometry x="420" width="90" height="20" as="geometry"/>
                </mxCell>
            </root>
        </mxGraphModel>
    </diagram>
    <diagram name="two_children_3" id="yiVslKFJf6vZwrnTdlUu">
        <mxGraphModel dx="1770" dy="2179" grid="1" gridSize="10" guides="1" tooltips="1" connect="1" arrows="1" fold="1" page="1" pageScale="1" pageWidth="827" pageHeight="1169" math="0" shadow="0">
            <root>
                <mxCell id="R2kJRojOLorgG1siDhDO-0"/>
                <mxCell id="R2kJRojOLorgG1siDhDO-1" parent="R2kJRojOLorgG1siDhDO-0"/>
                <mxCell id="cIX0Cn-6FtEzHIX5OOtX-0" value="" style="rounded=0;whiteSpace=wrap;html=1;fillColor=#FFFFFF;strokeColor=none;" parent="R2kJRojOLorgG1siDhDO-1" vertex="1">
                    <mxGeometry x="20" y="-40" width="480" height="1660" as="geometry"/>
                </mxCell>
                <mxCell id="R2kJRojOLorgG1siDhDO-2" value="&lt;font color=&quot;#000000&quot;&gt;parent&lt;/font&gt;" style="ellipse;whiteSpace=wrap;html=1;aspect=fixed;strokeColor=#006EAF;strokeWidth=2;fillColor=#1ba1e2;fontColor=#ffffff;" parent="R2kJRojOLorgG1siDhDO-1" vertex="1">
                    <mxGeometry x="240" y="10" width="40" height="40" as="geometry"/>
                </mxCell>
                <mxCell id="R2kJRojOLorgG1siDhDO-3" value="&lt;font color=&quot;#000000&quot;&gt;deleting&lt;/font&gt;" style="ellipse;whiteSpace=wrap;html=1;aspect=fixed;strokeColor=#FFB366;strokeWidth=2;fillColor=#1ba1e2;fontColor=#ffffff;" parent="R2kJRojOLorgG1siDhDO-1" vertex="1">
                    <mxGeometry x="240" y="90" width="40" height="40" as="geometry"/>
                </mxCell>
                <mxCell id="R2kJRojOLorgG1siDhDO-4" value="" style="endArrow=none;html=1;strokeColor=#000000;strokeWidth=2;exitX=0.5;exitY=1;exitDx=0;exitDy=0;entryX=0.5;entryY=0;entryDx=0;entryDy=0;" parent="R2kJRojOLorgG1siDhDO-1" source="R2kJRojOLorgG1siDhDO-2" target="R2kJRojOLorgG1siDhDO-3" edge="1">
                    <mxGeometry width="50" height="50" relative="1" as="geometry">
                        <mxPoint x="185.85786437626894" y="84.14213562373106" as="sourcePoint"/>
                        <mxPoint x="154.14213562373106" y="115.85786437626894" as="targetPoint"/>
                    </mxGeometry>
                </mxCell>
                <mxCell id="R2kJRojOLorgG1siDhDO-5" value="" style="endArrow=none;html=1;strokeColor=#000000;strokeWidth=2;entryX=1;entryY=1;entryDx=0;entryDy=0;exitX=0;exitY=1;exitDx=0;exitDy=0;" parent="R2kJRojOLorgG1siDhDO-1" source="R2kJRojOLorgG1siDhDO-7" target="R2kJRojOLorgG1siDhDO-3" edge="1">
                    <mxGeometry width="50" height="50" relative="1" as="geometry">
                        <mxPoint x="134.14213562373106" y="155.85786437626894" as="sourcePoint"/>
                        <mxPoint x="204.14213562373106" y="105.85786437626894" as="targetPoint"/>
                    </mxGeometry>
                </mxCell>
                <mxCell id="R2kJRojOLorgG1siDhDO-6" value="" style="html=1;shadow=0;dashed=0;align=center;verticalAlign=middle;shape=mxgraph.arrows2.arrow;dy=0.45;dx=30.5;notch=0;strokeColor=none;fillColor=#FF9933;rotation=90;" parent="R2kJRojOLorgG1siDhDO-1" vertex="1">
                    <mxGeometry x="235" y="410" width="50" height="40" as="geometry"/>
                </mxCell>
                <mxCell id="R2kJRojOLorgG1siDhDO-7" value="" style="ellipse;whiteSpace=wrap;html=1;aspect=fixed;strokeColor=#006EAF;strokeWidth=2;fillColor=#1ba1e2;fontColor=#ffffff;direction=south;" parent="R2kJRojOLorgG1siDhDO-1" vertex="1">
                    <mxGeometry x="380" y="150" width="40" height="40" as="geometry"/>
                </mxCell>
                <mxCell id="R2kJRojOLorgG1siDhDO-8" value="" style="endArrow=none;html=1;strokeColor=#000000;strokeWidth=2;entryX=0;entryY=1;entryDx=0;entryDy=0;exitX=1;exitY=0;exitDx=0;exitDy=0;" parent="R2kJRojOLorgG1siDhDO-1" target="R2kJRojOLorgG1siDhDO-3" edge="1">
                    <mxGeometry width="50" height="50" relative="1" as="geometry">
                        <mxPoint x="134.14213562373106" y="155.85786437626894" as="sourcePoint"/>
                        <mxPoint x="185.85786437626894" y="224.14213562373106" as="targetPoint"/>
                    </mxGeometry>
                </mxCell>
                <mxCell id="R2kJRojOLorgG1siDhDO-9" value="" style="ellipse;whiteSpace=wrap;html=1;aspect=fixed;strokeColor=#006EAF;strokeWidth=2;fillColor=#1ba1e2;fontColor=#ffffff;direction=south;" parent="R2kJRojOLorgG1siDhDO-1" vertex="1">
                    <mxGeometry x="100" y="150" width="40" height="40" as="geometry"/>
                </mxCell>
                <mxCell id="R2kJRojOLorgG1siDhDO-10" value="" style="ellipse;whiteSpace=wrap;html=1;aspect=fixed;strokeColor=#006EAF;strokeWidth=2;fillColor=#1ba1e2;fontColor=#ffffff;direction=south;" parent="R2kJRojOLorgG1siDhDO-1" vertex="1">
                    <mxGeometry x="40" y="210" width="40" height="40" as="geometry"/>
                </mxCell>
                <mxCell id="R2kJRojOLorgG1siDhDO-11" value="" style="ellipse;whiteSpace=wrap;html=1;aspect=fixed;strokeColor=#006EAF;strokeWidth=2;fillColor=#1ba1e2;fontColor=#ffffff;direction=south;" parent="R2kJRojOLorgG1siDhDO-1" vertex="1">
                    <mxGeometry x="160" y="210" width="40" height="40" as="geometry"/>
                </mxCell>
                <mxCell id="R2kJRojOLorgG1siDhDO-12" value="" style="ellipse;whiteSpace=wrap;html=1;aspect=fixed;strokeColor=#006EAF;strokeWidth=2;fillColor=#1ba1e2;fontColor=#ffffff;direction=south;" parent="R2kJRojOLorgG1siDhDO-1" vertex="1">
                    <mxGeometry x="440" y="210" width="40" height="40" as="geometry"/>
                </mxCell>
                <mxCell id="R2kJRojOLorgG1siDhDO-13" value="" style="endArrow=none;html=1;strokeColor=#000000;strokeWidth=2;entryX=0;entryY=1;entryDx=0;entryDy=0;exitX=1;exitY=0;exitDx=0;exitDy=0;" parent="R2kJRojOLorgG1siDhDO-1" source="R2kJRojOLorgG1siDhDO-7" target="R2kJRojOLorgG1siDhDO-12" edge="1">
                    <mxGeometry width="50" height="50" relative="1" as="geometry">
                        <mxPoint x="235.85786437626894" y="165.85786437626894" as="sourcePoint"/>
                        <mxPoint x="204.14213562373106" y="134.14213562373106" as="targetPoint"/>
                    </mxGeometry>
                </mxCell>
                <mxCell id="R2kJRojOLorgG1siDhDO-14" value="" style="endArrow=none;html=1;strokeColor=#000000;strokeWidth=2;entryX=0;entryY=0;entryDx=0;entryDy=0;exitX=1;exitY=1;exitDx=0;exitDy=0;" parent="R2kJRojOLorgG1siDhDO-1" source="R2kJRojOLorgG1siDhDO-9" target="R2kJRojOLorgG1siDhDO-10" edge="1">
                    <mxGeometry width="50" height="50" relative="1" as="geometry">
                        <mxPoint x="264.14213562373106" y="194.14213562373106" as="sourcePoint"/>
                        <mxPoint x="295.85786437626894" y="225.85786437626894" as="targetPoint"/>
                    </mxGeometry>
                </mxCell>
                <mxCell id="R2kJRojOLorgG1siDhDO-15" value="" style="endArrow=none;html=1;strokeColor=#000000;strokeWidth=2;entryX=0;entryY=1;entryDx=0;entryDy=0;exitX=1;exitY=0;exitDx=0;exitDy=0;" parent="R2kJRojOLorgG1siDhDO-1" source="R2kJRojOLorgG1siDhDO-9" target="R2kJRojOLorgG1siDhDO-11" edge="1">
                    <mxGeometry width="50" height="50" relative="1" as="geometry">
                        <mxPoint x="274.14213562373106" y="204.14213562373106" as="sourcePoint"/>
                        <mxPoint x="305.85786437626894" y="235.85786437626894" as="targetPoint"/>
                    </mxGeometry>
                </mxCell>
                <mxCell id="R2kJRojOLorgG1siDhDO-17" value="&lt;font color=&quot;#000000&quot;&gt;replacing&lt;/font&gt;" style="ellipse;whiteSpace=wrap;html=1;aspect=fixed;strokeColor=#006EAF;strokeWidth=2;fillColor=#1ba1e2;fontColor=#ffffff;direction=south;" parent="R2kJRojOLorgG1siDhDO-1" vertex="1">
                    <mxGeometry x="320" y="210" width="40" height="40" as="geometry"/>
                </mxCell>
                <mxCell id="R2kJRojOLorgG1siDhDO-18" value="" style="endArrow=none;html=1;strokeColor=#000000;strokeWidth=2;entryX=0;entryY=0;entryDx=0;entryDy=0;exitX=1;exitY=1;exitDx=0;exitDy=0;" parent="R2kJRojOLorgG1siDhDO-1" source="R2kJRojOLorgG1siDhDO-7" target="R2kJRojOLorgG1siDhDO-17" edge="1">
                    <mxGeometry width="50" height="50" relative="1" as="geometry">
                        <mxPoint x="424.14213562373106" y="194.14213562373106" as="sourcePoint"/>
                        <mxPoint x="455.85786437626894" y="225.85786437626894" as="targetPoint"/>
                    </mxGeometry>
                </mxCell>
                <mxCell id="R2kJRojOLorgG1siDhDO-22" value="&lt;font color=&quot;#000000&quot;&gt;parent&lt;/font&gt;" style="ellipse;whiteSpace=wrap;html=1;aspect=fixed;strokeColor=#006EAF;strokeWidth=2;fillColor=#1ba1e2;fontColor=#ffffff;" parent="R2kJRojOLorgG1siDhDO-1" vertex="1">
                    <mxGeometry x="240" y="470" width="40" height="40" as="geometry"/>
                </mxCell>
                <mxCell id="R2kJRojOLorgG1siDhDO-23" value="&lt;font color=&quot;#000000&quot;&gt;deleting&lt;/font&gt;" style="ellipse;whiteSpace=wrap;html=1;aspect=fixed;strokeColor=#FFB366;strokeWidth=2;fillColor=#1ba1e2;fontColor=#ffffff;" parent="R2kJRojOLorgG1siDhDO-1" vertex="1">
                    <mxGeometry x="240" y="550" width="40" height="40" as="geometry"/>
                </mxCell>
                <mxCell id="R2kJRojOLorgG1siDhDO-24" value="" style="endArrow=none;html=1;strokeColor=#000000;strokeWidth=2;exitX=0.5;exitY=1;exitDx=0;exitDy=0;entryX=0.5;entryY=0;entryDx=0;entryDy=0;" parent="R2kJRojOLorgG1siDhDO-1" source="R2kJRojOLorgG1siDhDO-22" target="R2kJRojOLorgG1siDhDO-23" edge="1">
                    <mxGeometry width="50" height="50" relative="1" as="geometry">
                        <mxPoint x="185.85786437626894" y="544.1421356237311" as="sourcePoint"/>
                        <mxPoint x="154.14213562373106" y="575.8578643762689" as="targetPoint"/>
                    </mxGeometry>
                </mxCell>
                <mxCell id="R2kJRojOLorgG1siDhDO-26" value="" style="endArrow=none;html=1;strokeColor=#000000;strokeWidth=2;entryX=0;entryY=1;entryDx=0;entryDy=0;exitX=1;exitY=0;exitDx=0;exitDy=0;" parent="R2kJRojOLorgG1siDhDO-1" target="R2kJRojOLorgG1siDhDO-23" edge="1">
                    <mxGeometry width="50" height="50" relative="1" as="geometry">
                        <mxPoint x="134.14213562373106" y="615.8578643762689" as="sourcePoint"/>
                        <mxPoint x="185.85786437626894" y="684.1421356237311" as="targetPoint"/>
                    </mxGeometry>
                </mxCell>
                <mxCell id="R2kJRojOLorgG1siDhDO-27" value="" style="ellipse;whiteSpace=wrap;html=1;aspect=fixed;strokeColor=#006EAF;strokeWidth=2;fillColor=#1ba1e2;fontColor=#ffffff;direction=south;" parent="R2kJRojOLorgG1siDhDO-1" vertex="1">
                    <mxGeometry x="100" y="610" width="40" height="40" as="geometry"/>
                </mxCell>
                <mxCell id="R2kJRojOLorgG1siDhDO-28" value="" style="ellipse;whiteSpace=wrap;html=1;aspect=fixed;strokeColor=#006EAF;strokeWidth=2;fillColor=#1ba1e2;fontColor=#ffffff;direction=south;" parent="R2kJRojOLorgG1siDhDO-1" vertex="1">
                    <mxGeometry x="40" y="670" width="40" height="40" as="geometry"/>
                </mxCell>
                <mxCell id="R2kJRojOLorgG1siDhDO-29" value="" style="ellipse;whiteSpace=wrap;html=1;aspect=fixed;strokeColor=#006EAF;strokeWidth=2;fillColor=#1ba1e2;fontColor=#ffffff;direction=south;" parent="R2kJRojOLorgG1siDhDO-1" vertex="1">
                    <mxGeometry x="160" y="670" width="40" height="40" as="geometry"/>
                </mxCell>
                <mxCell id="R2kJRojOLorgG1siDhDO-32" value="" style="endArrow=none;html=1;strokeColor=#000000;strokeWidth=2;entryX=0;entryY=0;entryDx=0;entryDy=0;exitX=1;exitY=1;exitDx=0;exitDy=0;" parent="R2kJRojOLorgG1siDhDO-1" source="R2kJRojOLorgG1siDhDO-27" target="R2kJRojOLorgG1siDhDO-28" edge="1">
                    <mxGeometry width="50" height="50" relative="1" as="geometry">
                        <mxPoint x="264.14213562373106" y="654.1421356237311" as="sourcePoint"/>
                        <mxPoint x="295.85786437626894" y="685.8578643762689" as="targetPoint"/>
                    </mxGeometry>
                </mxCell>
                <mxCell id="R2kJRojOLorgG1siDhDO-33" value="" style="endArrow=none;html=1;strokeColor=#000000;strokeWidth=2;entryX=0;entryY=1;entryDx=0;entryDy=0;exitX=1;exitY=0;exitDx=0;exitDy=0;" parent="R2kJRojOLorgG1siDhDO-1" source="R2kJRojOLorgG1siDhDO-27" target="R2kJRojOLorgG1siDhDO-29" edge="1">
                    <mxGeometry width="50" height="50" relative="1" as="geometry">
                        <mxPoint x="274.14213562373106" y="664.1421356237311" as="sourcePoint"/>
                        <mxPoint x="305.85786437626894" y="695.8578643762689" as="targetPoint"/>
                    </mxGeometry>
                </mxCell>
                <mxCell id="R2kJRojOLorgG1siDhDO-39" value="" style="html=1;shadow=0;dashed=0;align=center;verticalAlign=middle;shape=mxgraph.arrows2.arrow;dy=0.45;dx=30.5;notch=0;strokeColor=none;fillColor=#FF9933;rotation=90;" parent="R2kJRojOLorgG1siDhDO-1" vertex="1">
                    <mxGeometry x="235" y="810" width="50" height="40" as="geometry"/>
                </mxCell>
                <mxCell id="R2kJRojOLorgG1siDhDO-54" value="" style="ellipse;whiteSpace=wrap;html=1;aspect=fixed;strokeColor=#006EAF;strokeWidth=2;fillColor=#1ba1e2;fontColor=#ffffff;direction=south;" parent="R2kJRojOLorgG1siDhDO-1" vertex="1">
                    <mxGeometry x="360" y="270" width="40" height="40" as="geometry"/>
                </mxCell>
                <mxCell id="R2kJRojOLorgG1siDhDO-56" value="" style="endArrow=none;html=1;strokeColor=#000000;strokeWidth=2;entryX=0;entryY=1;entryDx=0;entryDy=0;exitX=1;exitY=0;exitDx=0;exitDy=0;" parent="R2kJRojOLorgG1siDhDO-1" source="R2kJRojOLorgG1siDhDO-17" target="R2kJRojOLorgG1siDhDO-54" edge="1">
                    <mxGeometry width="50" height="50" relative="1" as="geometry">
                        <mxPoint x="338.6800000000003" y="261" as="sourcePoint"/>
                        <mxPoint x="324.14213562373106" y="285.85786437626894" as="targetPoint"/>
                    </mxGeometry>
                </mxCell>
                <mxCell id="R2kJRojOLorgG1siDhDO-57" value="" style="ellipse;whiteSpace=wrap;html=1;aspect=fixed;strokeColor=#006EAF;strokeWidth=2;fillColor=#1ba1e2;fontColor=#ffffff;direction=south;" parent="R2kJRojOLorgG1siDhDO-1" vertex="1">
                    <mxGeometry x="380" y="610" width="40" height="40" as="geometry"/>
                </mxCell>
                <mxCell id="R2kJRojOLorgG1siDhDO-58" value="" style="ellipse;whiteSpace=wrap;html=1;aspect=fixed;strokeColor=#006EAF;strokeWidth=2;fillColor=#1ba1e2;fontColor=#ffffff;direction=south;" parent="R2kJRojOLorgG1siDhDO-1" vertex="1">
                    <mxGeometry x="440" y="670" width="40" height="40" as="geometry"/>
                </mxCell>
                <mxCell id="R2kJRojOLorgG1siDhDO-59" value="" style="endArrow=none;html=1;strokeColor=#000000;strokeWidth=2;entryX=0;entryY=1;entryDx=0;entryDy=0;exitX=1;exitY=0;exitDx=0;exitDy=0;" parent="R2kJRojOLorgG1siDhDO-1" source="R2kJRojOLorgG1siDhDO-57" target="R2kJRojOLorgG1siDhDO-58" edge="1">
                    <mxGeometry width="50" height="50" relative="1" as="geometry">
                        <mxPoint x="235.85786437626894" y="605.8578643762689" as="sourcePoint"/>
                        <mxPoint x="204.14213562373106" y="574.1421356237311" as="targetPoint"/>
                    </mxGeometry>
                </mxCell>
                <mxCell id="R2kJRojOLorgG1siDhDO-60" value="&lt;font color=&quot;#000000&quot;&gt;replacing&lt;/font&gt;" style="ellipse;whiteSpace=wrap;html=1;aspect=fixed;strokeColor=#006EAF;strokeWidth=2;fillColor=#1ba1e2;fontColor=#ffffff;direction=south;" parent="R2kJRojOLorgG1siDhDO-1" vertex="1">
                    <mxGeometry x="340" y="530" width="40" height="40" as="geometry"/>
                </mxCell>
                <mxCell id="R2kJRojOLorgG1siDhDO-61" value="" style="endArrow=none;html=1;strokeColor=#000000;strokeWidth=2;entryX=0;entryY=0;entryDx=0;entryDy=0;exitX=1;exitY=1;exitDx=0;exitDy=0;" parent="R2kJRojOLorgG1siDhDO-1" source="R2kJRojOLorgG1siDhDO-57" target="R2kJRojOLorgG1siDhDO-65" edge="1">
                    <mxGeometry width="50" height="50" relative="1" as="geometry">
                        <mxPoint x="424.14213562373106" y="634.1421356237311" as="sourcePoint"/>
                        <mxPoint x="455.85786437626894" y="665.8578643762689" as="targetPoint"/>
                    </mxGeometry>
                </mxCell>
                <mxCell id="R2kJRojOLorgG1siDhDO-65" value="" style="ellipse;whiteSpace=wrap;html=1;aspect=fixed;strokeColor=#006EAF;strokeWidth=2;fillColor=#1ba1e2;fontColor=#ffffff;direction=south;" parent="R2kJRojOLorgG1siDhDO-1" vertex="1">
                    <mxGeometry x="320" y="670" width="40" height="40" as="geometry"/>
                </mxCell>
                <mxCell id="R2kJRojOLorgG1siDhDO-67" value="" style="endArrow=none;html=1;strokeColor=#000000;strokeWidth=2;entryX=1;entryY=1;entryDx=0;entryDy=0;exitX=0;exitY=1;exitDx=0;exitDy=0;" parent="R2kJRojOLorgG1siDhDO-1" source="R2kJRojOLorgG1siDhDO-57" target="R2kJRojOLorgG1siDhDO-23" edge="1">
                    <mxGeometry width="50" height="50" relative="1" as="geometry">
                        <mxPoint x="144.14213562373106" y="625.8578643762689" as="sourcePoint"/>
                        <mxPoint x="255.85786437626894" y="594.1421356237311" as="targetPoint"/>
                    </mxGeometry>
                </mxCell>
                <mxCell id="R2kJRojOLorgG1siDhDO-68" value="&lt;font color=&quot;#000000&quot;&gt;parent&lt;/font&gt;" style="ellipse;whiteSpace=wrap;html=1;aspect=fixed;strokeColor=#006EAF;strokeWidth=2;fillColor=#1ba1e2;fontColor=#ffffff;" parent="R2kJRojOLorgG1siDhDO-1" vertex="1">
                    <mxGeometry x="240" y="870" width="40" height="40" as="geometry"/>
                </mxCell>
                <mxCell id="R2kJRojOLorgG1siDhDO-69" value="&lt;font color=&quot;#000000&quot;&gt;deleting&lt;/font&gt;" style="ellipse;whiteSpace=wrap;html=1;aspect=fixed;strokeColor=#FFB366;strokeWidth=2;fillColor=#1ba1e2;fontColor=#ffffff;" parent="R2kJRojOLorgG1siDhDO-1" vertex="1">
                    <mxGeometry x="240" y="950" width="40" height="40" as="geometry"/>
                </mxCell>
                <mxCell id="R2kJRojOLorgG1siDhDO-70" value="" style="endArrow=none;html=1;strokeColor=#000000;strokeWidth=2;exitX=0.5;exitY=1;exitDx=0;exitDy=0;entryX=0.5;entryY=0;entryDx=0;entryDy=0;" parent="R2kJRojOLorgG1siDhDO-1" source="R2kJRojOLorgG1siDhDO-68" target="R2kJRojOLorgG1siDhDO-69" edge="1">
                    <mxGeometry width="50" height="50" relative="1" as="geometry">
                        <mxPoint x="185.85786437626894" y="944.1421356237311" as="sourcePoint"/>
                        <mxPoint x="154.14213562373106" y="975.8578643762689" as="targetPoint"/>
                    </mxGeometry>
                </mxCell>
                <mxCell id="R2kJRojOLorgG1siDhDO-71" value="" style="endArrow=none;html=1;strokeColor=#000000;strokeWidth=2;entryX=0;entryY=1;entryDx=0;entryDy=0;exitX=1;exitY=0;exitDx=0;exitDy=0;" parent="R2kJRojOLorgG1siDhDO-1" target="R2kJRojOLorgG1siDhDO-69" edge="1">
                    <mxGeometry width="50" height="50" relative="1" as="geometry">
                        <mxPoint x="134.14213562373106" y="1015.8578643762689" as="sourcePoint"/>
                        <mxPoint x="185.85786437626894" y="1084.142135623731" as="targetPoint"/>
                    </mxGeometry>
                </mxCell>
                <mxCell id="R2kJRojOLorgG1siDhDO-72" value="" style="ellipse;whiteSpace=wrap;html=1;aspect=fixed;strokeColor=#006EAF;strokeWidth=2;fillColor=#1ba1e2;fontColor=#ffffff;direction=south;" parent="R2kJRojOLorgG1siDhDO-1" vertex="1">
                    <mxGeometry x="100" y="1010" width="40" height="40" as="geometry"/>
                </mxCell>
                <mxCell id="R2kJRojOLorgG1siDhDO-73" value="" style="ellipse;whiteSpace=wrap;html=1;aspect=fixed;strokeColor=#006EAF;strokeWidth=2;fillColor=#1ba1e2;fontColor=#ffffff;direction=south;" parent="R2kJRojOLorgG1siDhDO-1" vertex="1">
                    <mxGeometry x="40" y="1070" width="40" height="40" as="geometry"/>
                </mxCell>
                <mxCell id="R2kJRojOLorgG1siDhDO-74" value="" style="ellipse;whiteSpace=wrap;html=1;aspect=fixed;strokeColor=#006EAF;strokeWidth=2;fillColor=#1ba1e2;fontColor=#ffffff;direction=south;" parent="R2kJRojOLorgG1siDhDO-1" vertex="1">
                    <mxGeometry x="160" y="1070" width="40" height="40" as="geometry"/>
                </mxCell>
                <mxCell id="R2kJRojOLorgG1siDhDO-75" value="" style="endArrow=none;html=1;strokeColor=#000000;strokeWidth=2;entryX=0;entryY=0;entryDx=0;entryDy=0;exitX=1;exitY=1;exitDx=0;exitDy=0;" parent="R2kJRojOLorgG1siDhDO-1" source="R2kJRojOLorgG1siDhDO-72" target="R2kJRojOLorgG1siDhDO-73" edge="1">
                    <mxGeometry width="50" height="50" relative="1" as="geometry">
                        <mxPoint x="264.14213562373106" y="1054.142135623731" as="sourcePoint"/>
                        <mxPoint x="295.85786437626894" y="1085.857864376269" as="targetPoint"/>
                    </mxGeometry>
                </mxCell>
                <mxCell id="R2kJRojOLorgG1siDhDO-76" value="" style="endArrow=none;html=1;strokeColor=#000000;strokeWidth=2;entryX=0;entryY=1;entryDx=0;entryDy=0;exitX=1;exitY=0;exitDx=0;exitDy=0;" parent="R2kJRojOLorgG1siDhDO-1" source="R2kJRojOLorgG1siDhDO-72" target="R2kJRojOLorgG1siDhDO-74" edge="1">
                    <mxGeometry width="50" height="50" relative="1" as="geometry">
                        <mxPoint x="274.14213562373106" y="1064.142135623731" as="sourcePoint"/>
                        <mxPoint x="305.85786437626894" y="1095.857864376269" as="targetPoint"/>
                    </mxGeometry>
                </mxCell>
                <mxCell id="R2kJRojOLorgG1siDhDO-78" value="" style="ellipse;whiteSpace=wrap;html=1;aspect=fixed;strokeColor=#006EAF;strokeWidth=2;fillColor=#1ba1e2;fontColor=#ffffff;direction=south;" parent="R2kJRojOLorgG1siDhDO-1" vertex="1">
                    <mxGeometry x="380" y="1010" width="40" height="40" as="geometry"/>
                </mxCell>
                <mxCell id="R2kJRojOLorgG1siDhDO-79" value="" style="ellipse;whiteSpace=wrap;html=1;aspect=fixed;strokeColor=#006EAF;strokeWidth=2;fillColor=#1ba1e2;fontColor=#ffffff;direction=south;" parent="R2kJRojOLorgG1siDhDO-1" vertex="1">
                    <mxGeometry x="440" y="1070" width="40" height="40" as="geometry"/>
                </mxCell>
                <mxCell id="R2kJRojOLorgG1siDhDO-80" value="" style="endArrow=none;html=1;strokeColor=#000000;strokeWidth=2;entryX=0;entryY=1;entryDx=0;entryDy=0;exitX=1;exitY=0;exitDx=0;exitDy=0;" parent="R2kJRojOLorgG1siDhDO-1" source="R2kJRojOLorgG1siDhDO-78" target="R2kJRojOLorgG1siDhDO-79" edge="1">
                    <mxGeometry width="50" height="50" relative="1" as="geometry">
                        <mxPoint x="235.85786437626894" y="1005.8578643762689" as="sourcePoint"/>
                        <mxPoint x="204.14213562373106" y="974.1421356237311" as="targetPoint"/>
                    </mxGeometry>
                </mxCell>
                <mxCell id="R2kJRojOLorgG1siDhDO-81" value="&lt;font color=&quot;#000000&quot;&gt;replacing&lt;/font&gt;" style="ellipse;whiteSpace=wrap;html=1;aspect=fixed;strokeColor=#006EAF;strokeWidth=2;fillColor=#1ba1e2;fontColor=#ffffff;direction=south;" parent="R2kJRojOLorgG1siDhDO-1" vertex="1">
                    <mxGeometry x="320" y="950" width="40" height="40" as="geometry"/>
                </mxCell>
                <mxCell id="R2kJRojOLorgG1siDhDO-82" value="" style="endArrow=none;html=1;strokeColor=#000000;strokeWidth=2;entryX=0;entryY=0;entryDx=0;entryDy=0;exitX=1;exitY=1;exitDx=0;exitDy=0;" parent="R2kJRojOLorgG1siDhDO-1" source="R2kJRojOLorgG1siDhDO-78" target="R2kJRojOLorgG1siDhDO-84" edge="1">
                    <mxGeometry width="50" height="50" relative="1" as="geometry">
                        <mxPoint x="424.14213562373106" y="1034.142135623731" as="sourcePoint"/>
                        <mxPoint x="455.85786437626894" y="1065.857864376269" as="targetPoint"/>
                    </mxGeometry>
                </mxCell>
                <mxCell id="R2kJRojOLorgG1siDhDO-84" value="" style="ellipse;whiteSpace=wrap;html=1;aspect=fixed;strokeColor=#006EAF;strokeWidth=2;fillColor=#1ba1e2;fontColor=#ffffff;direction=south;" parent="R2kJRojOLorgG1siDhDO-1" vertex="1">
                    <mxGeometry x="320" y="1070" width="40" height="40" as="geometry"/>
                </mxCell>
                <mxCell id="R2kJRojOLorgG1siDhDO-85" value="" style="endArrow=none;html=1;strokeColor=#000000;strokeWidth=2;entryX=1;entryY=0;entryDx=0;entryDy=0;exitX=0;exitY=1;exitDx=0;exitDy=0;" parent="R2kJRojOLorgG1siDhDO-1" source="R2kJRojOLorgG1siDhDO-78" target="R2kJRojOLorgG1siDhDO-81" edge="1">
                    <mxGeometry width="50" height="50" relative="1" as="geometry">
                        <mxPoint x="144.14213562373106" y="1025.857864376269" as="sourcePoint"/>
                        <mxPoint x="255.85786437626894" y="994.1421356237311" as="targetPoint"/>
                    </mxGeometry>
                </mxCell>
                <mxCell id="R2kJRojOLorgG1siDhDO-86" value="" style="html=1;shadow=0;dashed=0;align=center;verticalAlign=middle;shape=mxgraph.arrows2.arrow;dy=0.45;dx=30.5;notch=0;strokeColor=none;fillColor=#FF9933;rotation=90;" parent="R2kJRojOLorgG1siDhDO-1" vertex="1">
                    <mxGeometry x="235" y="1220" width="50" height="40" as="geometry"/>
                </mxCell>
                <mxCell id="R2kJRojOLorgG1siDhDO-87" value="&lt;font color=&quot;#000000&quot;&gt;parent&lt;/font&gt;" style="ellipse;whiteSpace=wrap;html=1;aspect=fixed;strokeColor=#006EAF;strokeWidth=2;fillColor=#1ba1e2;fontColor=#ffffff;" parent="R2kJRojOLorgG1siDhDO-1" vertex="1">
                    <mxGeometry x="240" y="1280" width="40" height="40" as="geometry"/>
                </mxCell>
                <mxCell id="R2kJRojOLorgG1siDhDO-89" value="" style="endArrow=none;html=1;strokeColor=#000000;strokeWidth=2;exitX=0.5;exitY=1;exitDx=0;exitDy=0;entryX=0;entryY=0.5;entryDx=0;entryDy=0;" parent="R2kJRojOLorgG1siDhDO-1" source="R2kJRojOLorgG1siDhDO-87" target="R2kJRojOLorgG1siDhDO-100" edge="1">
                    <mxGeometry width="50" height="50" relative="1" as="geometry">
                        <mxPoint x="185.85786437626894" y="1354.142135623731" as="sourcePoint"/>
                        <mxPoint x="260" y="1360" as="targetPoint"/>
                    </mxGeometry>
                </mxCell>
                <mxCell id="R2kJRojOLorgG1siDhDO-90" value="" style="endArrow=none;html=1;strokeColor=#000000;strokeWidth=2;entryX=1;entryY=1;entryDx=0;entryDy=0;exitX=1;exitY=0;exitDx=0;exitDy=0;" parent="R2kJRojOLorgG1siDhDO-1" target="R2kJRojOLorgG1siDhDO-100" edge="1">
                    <mxGeometry width="50" height="50" relative="1" as="geometry">
                        <mxPoint x="134.14213562373106" y="1425.857864376269" as="sourcePoint"/>
                        <mxPoint x="245.85786437626894" y="1394.142135623731" as="targetPoint"/>
                    </mxGeometry>
                </mxCell>
                <mxCell id="R2kJRojOLorgG1siDhDO-91" value="" style="ellipse;whiteSpace=wrap;html=1;aspect=fixed;strokeColor=#006EAF;strokeWidth=2;fillColor=#1ba1e2;fontColor=#ffffff;direction=south;" parent="R2kJRojOLorgG1siDhDO-1" vertex="1">
                    <mxGeometry x="100" y="1420" width="40" height="40" as="geometry"/>
                </mxCell>
                <mxCell id="R2kJRojOLorgG1siDhDO-92" value="" style="ellipse;whiteSpace=wrap;html=1;aspect=fixed;strokeColor=#006EAF;strokeWidth=2;fillColor=#1ba1e2;fontColor=#ffffff;direction=south;" parent="R2kJRojOLorgG1siDhDO-1" vertex="1">
                    <mxGeometry x="40" y="1480" width="40" height="40" as="geometry"/>
                </mxCell>
                <mxCell id="R2kJRojOLorgG1siDhDO-93" value="" style="ellipse;whiteSpace=wrap;html=1;aspect=fixed;strokeColor=#006EAF;strokeWidth=2;fillColor=#1ba1e2;fontColor=#ffffff;direction=south;" parent="R2kJRojOLorgG1siDhDO-1" vertex="1">
                    <mxGeometry x="160" y="1480" width="40" height="40" as="geometry"/>
                </mxCell>
                <mxCell id="R2kJRojOLorgG1siDhDO-94" value="" style="endArrow=none;html=1;strokeColor=#000000;strokeWidth=2;entryX=0;entryY=0;entryDx=0;entryDy=0;exitX=1;exitY=1;exitDx=0;exitDy=0;" parent="R2kJRojOLorgG1siDhDO-1" source="R2kJRojOLorgG1siDhDO-91" target="R2kJRojOLorgG1siDhDO-92" edge="1">
                    <mxGeometry width="50" height="50" relative="1" as="geometry">
                        <mxPoint x="264.14213562373106" y="1464.142135623731" as="sourcePoint"/>
                        <mxPoint x="295.85786437626894" y="1495.857864376269" as="targetPoint"/>
                    </mxGeometry>
                </mxCell>
                <mxCell id="R2kJRojOLorgG1siDhDO-95" value="" style="endArrow=none;html=1;strokeColor=#000000;strokeWidth=2;entryX=0;entryY=1;entryDx=0;entryDy=0;exitX=1;exitY=0;exitDx=0;exitDy=0;" parent="R2kJRojOLorgG1siDhDO-1" source="R2kJRojOLorgG1siDhDO-91" target="R2kJRojOLorgG1siDhDO-93" edge="1">
                    <mxGeometry width="50" height="50" relative="1" as="geometry">
                        <mxPoint x="274.14213562373106" y="1474.142135623731" as="sourcePoint"/>
                        <mxPoint x="305.85786437626894" y="1505.857864376269" as="targetPoint"/>
                    </mxGeometry>
                </mxCell>
                <mxCell id="R2kJRojOLorgG1siDhDO-96" value="" style="endArrow=classic;html=1;curved=1;strokeColor=#FFB366;strokeWidth=2;dashed=1;exitX=1;exitY=1;exitDx=0;exitDy=0;entryX=1;entryY=0.5;entryDx=0;entryDy=0;edgeStyle=orthogonalEdgeStyle;" parent="R2kJRojOLorgG1siDhDO-1" source="jsK2nsRKVQ8uEez5lqcy-15" target="R2kJRojOLorgG1siDhDO-100" edge="1">
                    <mxGeometry width="50" height="50" relative="1" as="geometry">
                        <mxPoint x="211.31999999999994" y="1381.68" as="sourcePoint"/>
                        <mxPoint x="260" y="1400" as="targetPoint"/>
                        <Array as="points">
                            <mxPoint x="286" y="1600"/>
                            <mxPoint x="230" y="1600"/>
                            <mxPoint x="230" y="1440"/>
                            <mxPoint x="260" y="1440"/>
                        </Array>
                    </mxGeometry>
                </mxCell>
                <mxCell id="R2kJRojOLorgG1siDhDO-97" value="" style="ellipse;whiteSpace=wrap;html=1;aspect=fixed;strokeColor=#006EAF;strokeWidth=2;fillColor=#1ba1e2;fontColor=#ffffff;direction=south;" parent="R2kJRojOLorgG1siDhDO-1" vertex="1">
                    <mxGeometry x="380" y="1420" width="40" height="40" as="geometry"/>
                </mxCell>
                <mxCell id="R2kJRojOLorgG1siDhDO-98" value="" style="ellipse;whiteSpace=wrap;html=1;aspect=fixed;strokeColor=#006EAF;strokeWidth=2;fillColor=#1ba1e2;fontColor=#ffffff;direction=south;" parent="R2kJRojOLorgG1siDhDO-1" vertex="1">
                    <mxGeometry x="440" y="1480" width="40" height="40" as="geometry"/>
                </mxCell>
                <mxCell id="R2kJRojOLorgG1siDhDO-99" value="" style="endArrow=none;html=1;strokeColor=#000000;strokeWidth=2;entryX=0;entryY=1;entryDx=0;entryDy=0;exitX=1;exitY=0;exitDx=0;exitDy=0;" parent="R2kJRojOLorgG1siDhDO-1" source="R2kJRojOLorgG1siDhDO-97" target="R2kJRojOLorgG1siDhDO-98" edge="1">
                    <mxGeometry width="50" height="50" relative="1" as="geometry">
                        <mxPoint x="235.85786437626894" y="1415.857864376269" as="sourcePoint"/>
                        <mxPoint x="204.14213562373106" y="1384.142135623731" as="targetPoint"/>
                    </mxGeometry>
                </mxCell>
                <mxCell id="R2kJRojOLorgG1siDhDO-100" value="&lt;font color=&quot;#000000&quot;&gt;replacing&lt;/font&gt;" style="ellipse;whiteSpace=wrap;html=1;aspect=fixed;strokeColor=#006EAF;strokeWidth=2;fillColor=#1ba1e2;fontColor=#ffffff;direction=south;" parent="R2kJRojOLorgG1siDhDO-1" vertex="1">
                    <mxGeometry x="240" y="1360" width="40" height="40" as="geometry"/>
                </mxCell>
                <mxCell id="R2kJRojOLorgG1siDhDO-101" value="" style="endArrow=none;html=1;strokeColor=#000000;strokeWidth=2;entryX=0;entryY=0;entryDx=0;entryDy=0;exitX=1;exitY=1;exitDx=0;exitDy=0;" parent="R2kJRojOLorgG1siDhDO-1" source="R2kJRojOLorgG1siDhDO-97" target="R2kJRojOLorgG1siDhDO-103" edge="1">
                    <mxGeometry width="50" height="50" relative="1" as="geometry">
                        <mxPoint x="424.14213562373106" y="1444.142135623731" as="sourcePoint"/>
                        <mxPoint x="455.85786437626894" y="1475.857864376269" as="targetPoint"/>
                    </mxGeometry>
                </mxCell>
                <mxCell id="R2kJRojOLorgG1siDhDO-103" value="" style="ellipse;whiteSpace=wrap;html=1;aspect=fixed;strokeColor=#006EAF;strokeWidth=2;fillColor=#1ba1e2;fontColor=#ffffff;direction=south;" parent="R2kJRojOLorgG1siDhDO-1" vertex="1">
                    <mxGeometry x="320" y="1480" width="40" height="40" as="geometry"/>
                </mxCell>
                <mxCell id="R2kJRojOLorgG1siDhDO-104" value="" style="endArrow=none;html=1;strokeColor=#000000;strokeWidth=2;entryX=1;entryY=0;entryDx=0;entryDy=0;exitX=0;exitY=1;exitDx=0;exitDy=0;" parent="R2kJRojOLorgG1siDhDO-1" source="R2kJRojOLorgG1siDhDO-97" target="R2kJRojOLorgG1siDhDO-100" edge="1">
                    <mxGeometry width="50" height="50" relative="1" as="geometry">
                        <mxPoint x="144.14213562373106" y="1435.857864376269" as="sourcePoint"/>
                        <mxPoint x="255.85786437626894" y="1404.142135623731" as="targetPoint"/>
                    </mxGeometry>
                </mxCell>
                <mxCell id="jsK2nsRKVQ8uEez5lqcy-0" value="" style="endArrow=classic;html=1;curved=1;strokeColor=#FFB366;strokeWidth=2;dashed=1;exitX=1;exitY=1;exitDx=0;exitDy=0;entryX=0.5;entryY=1;entryDx=0;entryDy=0;edgeStyle=orthogonalEdgeStyle;" parent="R2kJRojOLorgG1siDhDO-1" source="R2kJRojOLorgG1siDhDO-17" target="R2kJRojOLorgG1siDhDO-3" edge="1">
                    <mxGeometry width="50" height="50" relative="1" as="geometry">
                        <mxPoint x="225.85786437626894" y="184.14213562373106" as="sourcePoint"/>
                        <mxPoint x="180" y="130" as="targetPoint"/>
                        <Array as="points">
                            <mxPoint x="326" y="280"/>
                            <mxPoint x="260" y="280"/>
                        </Array>
                    </mxGeometry>
                </mxCell>
                <mxCell id="jsK2nsRKVQ8uEez5lqcy-2" value="" style="ellipse;whiteSpace=wrap;html=1;aspect=fixed;strokeColor=#006EAF;strokeWidth=2;fillColor=#1ba1e2;fontColor=#ffffff;direction=south;" parent="R2kJRojOLorgG1siDhDO-1" vertex="1">
                    <mxGeometry x="320" y="330" width="40" height="40" as="geometry"/>
                </mxCell>
                <mxCell id="jsK2nsRKVQ8uEez5lqcy-3" value="" style="endArrow=none;html=1;strokeColor=#000000;strokeWidth=2;exitX=1;exitY=0.5;exitDx=0;exitDy=0;" parent="R2kJRojOLorgG1siDhDO-1" source="R2kJRojOLorgG1siDhDO-54" target="jsK2nsRKVQ8uEez5lqcy-2" edge="1">
                    <mxGeometry width="50" height="50" relative="1" as="geometry">
                        <mxPoint x="364.14213562373106" y="254.14213562373106" as="sourcePoint"/>
                        <mxPoint x="375.85786437626894" y="285.85786437626894" as="targetPoint"/>
                    </mxGeometry>
                </mxCell>
                <mxCell id="jsK2nsRKVQ8uEez5lqcy-4" value="" style="endArrow=classic;html=1;curved=1;strokeColor=#FFB366;strokeWidth=2;dashed=1;exitX=1;exitY=1;exitDx=0;exitDy=0;entryX=1;entryY=0.5;entryDx=0;entryDy=0;edgeStyle=orthogonalEdgeStyle;" parent="R2kJRojOLorgG1siDhDO-1" source="jsK2nsRKVQ8uEez5lqcy-2" target="R2kJRojOLorgG1siDhDO-17" edge="1">
                    <mxGeometry width="50" height="50" relative="1" as="geometry">
                        <mxPoint x="335.85786437626894" y="254.14213562373106" as="sourcePoint"/>
                        <mxPoint x="270" y="140" as="targetPoint"/>
                        <Array as="points">
                            <mxPoint x="326" y="390"/>
                            <mxPoint x="300" y="390"/>
                            <mxPoint x="300" y="290"/>
                            <mxPoint x="340" y="290"/>
                        </Array>
                    </mxGeometry>
                </mxCell>
                <mxCell id="jsK2nsRKVQ8uEez5lqcy-5" value="" style="ellipse;whiteSpace=wrap;html=1;aspect=fixed;strokeColor=#006EAF;strokeWidth=2;fillColor=#1ba1e2;fontColor=#ffffff;direction=south;" parent="R2kJRojOLorgG1siDhDO-1" vertex="1">
                    <mxGeometry x="280" y="730" width="40" height="40" as="geometry"/>
                </mxCell>
                <mxCell id="jsK2nsRKVQ8uEez5lqcy-7" value="" style="endArrow=none;html=1;strokeColor=#000000;strokeWidth=2;exitX=1;exitY=1;exitDx=0;exitDy=0;entryX=0;entryY=0;entryDx=0;entryDy=0;" parent="R2kJRojOLorgG1siDhDO-1" source="R2kJRojOLorgG1siDhDO-65" target="jsK2nsRKVQ8uEez5lqcy-5" edge="1">
                    <mxGeometry width="50" height="50" relative="1" as="geometry">
                        <mxPoint x="390" y="380" as="sourcePoint"/>
                        <mxPoint x="364.14213562373106" y="405.85786437626894" as="targetPoint"/>
                    </mxGeometry>
                </mxCell>
                <mxCell id="jsK2nsRKVQ8uEez5lqcy-8" value="" style="endArrow=classic;html=1;curved=1;strokeColor=#FFB366;strokeWidth=2;dashed=1;exitX=1;exitY=1;exitDx=0;exitDy=0;entryX=1;entryY=0.5;entryDx=0;entryDy=0;edgeStyle=orthogonalEdgeStyle;" parent="R2kJRojOLorgG1siDhDO-1" source="jsK2nsRKVQ8uEez5lqcy-5" target="R2kJRojOLorgG1siDhDO-60" edge="1">
                    <mxGeometry width="50" height="50" relative="1" as="geometry">
                        <mxPoint x="335.85786437626894" y="434.14213562373106" as="sourcePoint"/>
                        <mxPoint x="350" y="320" as="targetPoint"/>
                        <Array as="points">
                            <mxPoint x="286" y="780"/>
                            <mxPoint x="250" y="780"/>
                            <mxPoint x="250" y="680"/>
                            <mxPoint x="310" y="680"/>
                            <mxPoint x="310" y="620"/>
                            <mxPoint x="360" y="620"/>
                        </Array>
                    </mxGeometry>
                </mxCell>
                <mxCell id="jsK2nsRKVQ8uEez5lqcy-9" value="" style="ellipse;whiteSpace=wrap;html=1;aspect=fixed;strokeColor=#006EAF;strokeWidth=2;fillColor=#1ba1e2;fontColor=#ffffff;direction=south;" parent="R2kJRojOLorgG1siDhDO-1" vertex="1">
                    <mxGeometry x="280" y="1130" width="40" height="40" as="geometry"/>
                </mxCell>
                <mxCell id="jsK2nsRKVQ8uEez5lqcy-11" value="" style="endArrow=none;html=1;strokeColor=#000000;strokeWidth=2;entryX=0;entryY=0;entryDx=0;entryDy=0;exitX=1;exitY=1;exitDx=0;exitDy=0;" parent="R2kJRojOLorgG1siDhDO-1" source="R2kJRojOLorgG1siDhDO-84" target="jsK2nsRKVQ8uEez5lqcy-9" edge="1">
                    <mxGeometry width="50" height="50" relative="1" as="geometry">
                        <mxPoint x="395.85786437626894" y="1054.142135623731" as="sourcePoint"/>
                        <mxPoint x="364.14213562373106" y="1085.857864376269" as="targetPoint"/>
                    </mxGeometry>
                </mxCell>
                <mxCell id="jsK2nsRKVQ8uEez5lqcy-12" value="" style="endArrow=classic;html=1;curved=1;strokeColor=#FFB366;strokeWidth=2;dashed=1;exitX=1;exitY=1;exitDx=0;exitDy=0;entryX=1;entryY=0.5;entryDx=0;entryDy=0;edgeStyle=orthogonalEdgeStyle;" parent="R2kJRojOLorgG1siDhDO-1" source="jsK2nsRKVQ8uEez5lqcy-9" target="R2kJRojOLorgG1siDhDO-81" edge="1">
                    <mxGeometry width="50" height="50" relative="1" as="geometry">
                        <mxPoint x="295.85786437626894" y="814.1421356237311" as="sourcePoint"/>
                        <mxPoint x="370" y="620" as="targetPoint"/>
                        <Array as="points">
                            <mxPoint x="286" y="1190"/>
                            <mxPoint x="260" y="1190"/>
                            <mxPoint x="260" y="1030"/>
                            <mxPoint x="340" y="1030"/>
                        </Array>
                    </mxGeometry>
                </mxCell>
                <mxCell id="jsK2nsRKVQ8uEez5lqcy-15" value="" style="ellipse;whiteSpace=wrap;html=1;aspect=fixed;strokeColor=#006EAF;strokeWidth=2;fillColor=#1ba1e2;fontColor=#ffffff;direction=south;" parent="R2kJRojOLorgG1siDhDO-1" vertex="1">
                    <mxGeometry x="280" y="1540" width="40" height="40" as="geometry"/>
                </mxCell>
                <mxCell id="jsK2nsRKVQ8uEez5lqcy-16" value="" style="endArrow=none;html=1;strokeColor=#000000;strokeWidth=2;exitX=1;exitY=1;exitDx=0;exitDy=0;entryX=0;entryY=0;entryDx=0;entryDy=0;" parent="R2kJRojOLorgG1siDhDO-1" source="R2kJRojOLorgG1siDhDO-103" target="jsK2nsRKVQ8uEez5lqcy-15" edge="1">
                    <mxGeometry width="50" height="50" relative="1" as="geometry">
                        <mxPoint x="395.85786437626894" y="1464.142135623731" as="sourcePoint"/>
                        <mxPoint x="290" y="1510" as="targetPoint"/>
                    </mxGeometry>
                </mxCell>
                <mxCell id="p9TUWStRkOqC3oHmHKft-0" value="" style="endArrow=classic;html=1;dashed=1;strokeColor=#FFB366;strokeWidth=2;" edge="1" parent="R2kJRojOLorgG1siDhDO-1">
                    <mxGeometry width="50" height="50" relative="1" as="geometry">
                        <mxPoint x="340" y="-10.5" as="sourcePoint"/>
                        <mxPoint x="390" y="-10.5" as="targetPoint"/>
                    </mxGeometry>
                </mxCell>
                <mxCell id="p9TUWStRkOqC3oHmHKft-1" value="&lt;font color=&quot;#000000&quot; style=&quot;font-size: 14px&quot;&gt;&lt;b&gt;left thread&lt;/b&gt;&lt;/font&gt;" style="text;html=1;strokeColor=none;fillColor=none;align=center;verticalAlign=middle;whiteSpace=wrap;rounded=0;" vertex="1" parent="R2kJRojOLorgG1siDhDO-1">
                    <mxGeometry x="390" y="-20" width="90" height="20" as="geometry"/>
                </mxCell>
            </root>
        </mxGraphModel>
    </diagram>
</mxfile>